<mxfile host="Electron" modified="2024-06-05T10:03:31.953Z" agent="Mozilla/5.0 (Windows NT 10.0; Win64; x64) AppleWebKit/537.36 (KHTML, like Gecko) draw.io/24.2.5 Chrome/120.0.6099.109 Electron/28.1.0 Safari/537.36" etag="y6GtDu8lTNoOoxIYhmL0" version="24.2.5" type="device" pages="3">
  <diagram id="ysb7TeHvpRBZEQ-nuiT_" name="UseCases">
    <mxGraphModel dx="1036" dy="614" grid="1" gridSize="10" guides="1" tooltips="1" connect="1" arrows="1" fold="1" page="1" pageScale="1" pageWidth="827" pageHeight="1169" math="0" shadow="0">
      <root>
        <mxCell id="0" />
        <mxCell id="1" parent="0" />
        <mxCell id="a055b9ZYZXAjmYekXefy-1" value="Неавторизованный&lt;br&gt;пользователь" style="shape=umlActor;verticalLabelPosition=bottom;verticalAlign=top;html=1;outlineConnect=0;" parent="1" vertex="1">
          <mxGeometry x="39" y="93" width="30" height="60" as="geometry" />
        </mxCell>
        <mxCell id="a055b9ZYZXAjmYekXefy-2" value="Гость" style="shape=umlActor;verticalLabelPosition=bottom;verticalAlign=top;html=1;outlineConnect=0;" parent="1" vertex="1">
          <mxGeometry x="39" y="314" width="30" height="60" as="geometry" />
        </mxCell>
        <mxCell id="a055b9ZYZXAjmYekXefy-15" value="Создать учетную запись Сотруднику&amp;nbsp;" style="ellipse;whiteSpace=wrap;html=1;" parent="1" vertex="1">
          <mxGeometry x="360" y="920" width="140" height="70" as="geometry" />
        </mxCell>
        <mxCell id="a055b9ZYZXAjmYekXefy-20" value="Войти в приложение" style="ellipse;whiteSpace=wrap;html=1;" parent="1" vertex="1">
          <mxGeometry x="179" y="89" width="140" height="70" as="geometry" />
        </mxCell>
        <mxCell id="a055b9ZYZXAjmYekXefy-21" value="Зарегистрироваться" style="ellipse;whiteSpace=wrap;html=1;" parent="1" vertex="1">
          <mxGeometry x="400" y="89" width="140" height="70" as="geometry" />
        </mxCell>
        <mxCell id="a055b9ZYZXAjmYekXefy-25" value="Удалить учетную запись Сотруднику&amp;nbsp;" style="ellipse;whiteSpace=wrap;html=1;" parent="1" vertex="1">
          <mxGeometry x="510" y="930" width="140" height="70" as="geometry" />
        </mxCell>
        <mxCell id="a055b9ZYZXAjmYekXefy-30" style="edgeStyle=none;rounded=0;orthogonalLoop=1;jettySize=auto;html=1;entryX=0.5;entryY=0;entryDx=0;entryDy=0;endArrow=none;endFill=0;elbow=vertical;" parent="1" edge="1">
          <mxGeometry relative="1" as="geometry">
            <mxPoint x="230" y="159" as="sourcePoint" />
            <mxPoint x="230" y="159" as="targetPoint" />
          </mxGeometry>
        </mxCell>
        <mxCell id="a055b9ZYZXAjmYekXefy-49" value="" style="edgeStyle=none;rounded=0;orthogonalLoop=1;jettySize=auto;html=1;endArrow=none;endFill=0;elbow=vertical;" parent="1" source="a055b9ZYZXAjmYekXefy-1" target="a055b9ZYZXAjmYekXefy-20" edge="1">
          <mxGeometry relative="1" as="geometry">
            <mxPoint x="69" y="112" as="sourcePoint" />
            <mxPoint x="179" y="112" as="targetPoint" />
          </mxGeometry>
        </mxCell>
        <mxCell id="a055b9ZYZXAjmYekXefy-54" value="&amp;lt;&amp;lt;extend&amp;gt;&amp;gt;" style="html=1;verticalAlign=bottom;labelBackgroundColor=none;endArrow=open;endFill=0;dashed=1;rounded=0;elbow=vertical;" parent="1" source="a055b9ZYZXAjmYekXefy-21" target="a055b9ZYZXAjmYekXefy-20" edge="1">
          <mxGeometry width="160" relative="1" as="geometry">
            <mxPoint x="480" y="112" as="sourcePoint" />
            <mxPoint x="319" y="112" as="targetPoint" />
          </mxGeometry>
        </mxCell>
        <mxCell id="a055b9ZYZXAjmYekXefy-56" value="" style="rounded=0;orthogonalLoop=1;jettySize=auto;html=1;endArrow=none;endFill=0;elbow=vertical;" parent="1" source="0_W0DPVKqMBV8tbLmR9D-4" target="a055b9ZYZXAjmYekXefy-25" edge="1">
          <mxGeometry relative="1" as="geometry">
            <mxPoint x="114" y="520" as="sourcePoint" />
            <mxPoint x="190" y="899" as="targetPoint" />
          </mxGeometry>
        </mxCell>
        <object placeholders="1" c4Name="" c4Type="SystemScopeBoundary" c4Application="Web Site" label="&lt;font style=&quot;font-size: 16px&quot;&gt;&lt;b&gt;&lt;div style=&quot;text-align: left&quot;&gt;%c4Name%&lt;/div&gt;&lt;/b&gt;&lt;/font&gt;&lt;div style=&quot;text-align: left&quot;&gt;[%c4Application%]&lt;/div&gt;" id="FbxtJRFfcbUpN-kxixbd-1">
          <mxCell style="rounded=1;fontSize=11;whiteSpace=wrap;html=1;dashed=1;arcSize=20;fillColor=none;strokeColor=#666666;fontColor=#333333;labelBackgroundColor=none;align=left;verticalAlign=bottom;labelBorderColor=none;spacingTop=0;spacing=10;dashPattern=8 4;metaEdit=1;rotatable=0;perimeter=rectanglePerimeter;noLabel=0;labelPadding=0;allowArrows=0;connectable=0;expand=0;recursiveResize=0;editable=1;pointerEvents=0;absoluteArcSize=1;points=[[0.25,0,0],[0.5,0,0],[0.75,0,0],[1,0.25,0],[1,0.5,0],[1,0.75,0],[0.75,1,0],[0.5,1,0],[0.25,1,0],[0,0.75,0],[0,0.5,0],[0,0.25,0]];" parent="1" vertex="1">
            <mxGeometry x="120" y="80" width="680" height="1200" as="geometry" />
          </mxCell>
        </object>
        <mxCell id="FbxtJRFfcbUpN-kxixbd-8" value="" style="rounded=0;orthogonalLoop=1;jettySize=auto;html=1;endArrow=none;endFill=0;elbow=vertical;" parent="1" source="sMaYzG-gu67RRJvfcKwI-11" target="sMaYzG-gu67RRJvfcKwI-5" edge="1">
          <mxGeometry relative="1" as="geometry">
            <mxPoint x="79" y="614.5392156862745" as="sourcePoint" />
            <mxPoint x="370" y="819" as="targetPoint" />
          </mxGeometry>
        </mxCell>
        <mxCell id="8lR-f3cnY7n3PkXoEfy2-10" value="" style="rounded=0;orthogonalLoop=1;jettySize=auto;html=1;endArrow=none;endFill=0;elbow=vertical;" parent="1" source="a055b9ZYZXAjmYekXefy-2" target="8lR-f3cnY7n3PkXoEfy2-2" edge="1">
          <mxGeometry relative="1" as="geometry">
            <mxPoint x="70" y="463" as="sourcePoint" />
            <mxPoint x="370" y="538" as="targetPoint" />
          </mxGeometry>
        </mxCell>
        <mxCell id="JoXZJosrfBxTNISlRDOm-1" value="Просмотреть профиль" style="ellipse;whiteSpace=wrap;html=1;" parent="1" vertex="1">
          <mxGeometry x="179" y="503" width="140" height="70" as="geometry" />
        </mxCell>
        <mxCell id="JoXZJosrfBxTNISlRDOm-2" value="" style="rounded=0;orthogonalLoop=1;jettySize=auto;html=1;endArrow=none;endFill=0;elbow=vertical;" parent="1" source="sMaYzG-gu67RRJvfcKwI-11" target="JoXZJosrfBxTNISlRDOm-1" edge="1">
          <mxGeometry relative="1" as="geometry">
            <mxPoint x="79" y="623.8795180722892" as="sourcePoint" />
            <mxPoint x="205.290909225091" y="791.2530122260243" as="targetPoint" />
          </mxGeometry>
        </mxCell>
        <mxCell id="qVrRWGs1hirCwmzvVkvg-1" value="Посмотреть историю броней" style="ellipse;whiteSpace=wrap;html=1;" parent="1" vertex="1">
          <mxGeometry x="179" y="182" width="140" height="70" as="geometry" />
        </mxCell>
        <mxCell id="qVrRWGs1hirCwmzvVkvg-2" value="" style="rounded=0;orthogonalLoop=1;jettySize=auto;html=1;endArrow=none;endFill=0;elbow=vertical;" parent="1" source="a055b9ZYZXAjmYekXefy-2" target="qVrRWGs1hirCwmzvVkvg-1" edge="1">
          <mxGeometry relative="1" as="geometry">
            <mxPoint x="79" y="466.98305084745766" as="sourcePoint" />
            <mxPoint x="266.91338119795296" y="642.156541794702" as="targetPoint" />
          </mxGeometry>
        </mxCell>
        <mxCell id="sMaYzG-gu67RRJvfcKwI-4" value="" style="rounded=0;orthogonalLoop=1;jettySize=auto;html=1;endArrow=none;endFill=0;" parent="1" source="0_W0DPVKqMBV8tbLmR9D-4" target="a055b9ZYZXAjmYekXefy-15" edge="1">
          <mxGeometry relative="1" as="geometry" />
        </mxCell>
        <mxCell id="0_W0DPVKqMBV8tbLmR9D-4" value="Администратор" style="shape=umlActor;verticalLabelPosition=bottom;verticalAlign=top;html=1;outlineConnect=0;" parent="1" vertex="1">
          <mxGeometry x="39" y="1080" width="30" height="60" as="geometry" />
        </mxCell>
        <mxCell id="NdBUdPlIk6j9CVnB6fB3-1" value="Забронировать номер" style="ellipse;whiteSpace=wrap;html=1;" parent="1" vertex="1">
          <mxGeometry x="400" y="182" width="140" height="70" as="geometry" />
        </mxCell>
        <mxCell id="NdBUdPlIk6j9CVnB6fB3-2" value="&amp;lt;&amp;lt;extend&amp;gt;&amp;gt;" style="html=1;verticalAlign=bottom;labelBackgroundColor=none;endArrow=open;endFill=0;dashed=1;rounded=0;elbow=vertical;" parent="1" source="NdBUdPlIk6j9CVnB6fB3-1" target="qVrRWGs1hirCwmzvVkvg-1" edge="1">
          <mxGeometry x="-0.0123" width="160" relative="1" as="geometry">
            <mxPoint x="533.5868500746619" y="781.2732971487799" as="sourcePoint" />
            <mxPoint x="329.9974746830583" y="601.9987373415292" as="targetPoint" />
            <mxPoint as="offset" />
          </mxGeometry>
        </mxCell>
        <mxCell id="NdBUdPlIk6j9CVnB6fB3-3" value="Редактировать профиль" style="ellipse;whiteSpace=wrap;html=1;" parent="1" vertex="1">
          <mxGeometry x="400" y="503" width="140" height="70" as="geometry" />
        </mxCell>
        <mxCell id="NdBUdPlIk6j9CVnB6fB3-4" value="&amp;lt;&amp;lt;extend&amp;gt;&amp;gt;" style="html=1;verticalAlign=bottom;labelBackgroundColor=none;endArrow=open;endFill=0;dashed=1;rounded=0;elbow=vertical;" parent="1" source="NdBUdPlIk6j9CVnB6fB3-3" target="JoXZJosrfBxTNISlRDOm-1" edge="1">
          <mxGeometry x="-0.0123" width="160" relative="1" as="geometry">
            <mxPoint x="503.0868500746619" y="1042.0232971487799" as="sourcePoint" />
            <mxPoint x="299.4974746830583" y="1003.7487373415292" as="targetPoint" />
            <mxPoint as="offset" />
          </mxGeometry>
        </mxCell>
        <mxCell id="0q_UpdkAYikSVOBWB9wK-1" value="Заказать услугу" style="ellipse;whiteSpace=wrap;html=1;" parent="1" vertex="1">
          <mxGeometry x="400" y="262" width="140" height="70" as="geometry" />
        </mxCell>
        <mxCell id="0q_UpdkAYikSVOBWB9wK-2" value="&amp;lt;&amp;lt;extend&amp;gt;&amp;gt;" style="html=1;verticalAlign=bottom;labelBackgroundColor=none;endArrow=open;endFill=0;dashed=1;rounded=0;elbow=vertical;" parent="1" source="0q_UpdkAYikSVOBWB9wK-1" target="8lR-f3cnY7n3PkXoEfy2-2" edge="1">
          <mxGeometry x="-0.0123" y="-3" width="160" relative="1" as="geometry">
            <mxPoint x="657.4868500746619" y="727.1632971487799" as="sourcePoint" />
            <mxPoint x="550" y="632" as="targetPoint" />
            <mxPoint as="offset" />
          </mxGeometry>
        </mxCell>
        <mxCell id="sMaYzG-gu67RRJvfcKwI-2" value="Сотрудник" style="shape=umlActor;verticalLabelPosition=bottom;verticalAlign=top;html=1;outlineConnect=0;" parent="1" vertex="1">
          <mxGeometry x="39" y="815" width="30" height="60" as="geometry" />
        </mxCell>
        <mxCell id="sMaYzG-gu67RRJvfcKwI-3" value="" style="endArrow=block;startArrow=none;endFill=0;startFill=0;endSize=8;html=1;rounded=0;" parent="1" source="0_W0DPVKqMBV8tbLmR9D-4" target="sMaYzG-gu67RRJvfcKwI-2" edge="1">
          <mxGeometry width="160" relative="1" as="geometry">
            <mxPoint x="330" y="1017" as="sourcePoint" />
            <mxPoint x="64" y="877" as="targetPoint" />
          </mxGeometry>
        </mxCell>
        <mxCell id="sMaYzG-gu67RRJvfcKwI-5" value="Выйти из приложения" style="ellipse;whiteSpace=wrap;html=1;" parent="1" vertex="1">
          <mxGeometry x="179" y="665" width="140" height="70" as="geometry" />
        </mxCell>
        <mxCell id="sMaYzG-gu67RRJvfcKwI-6" value="" style="rounded=0;orthogonalLoop=1;jettySize=auto;html=1;endArrow=block;endFill=0;elbow=vertical;" parent="1" source="sMaYzG-gu67RRJvfcKwI-2" target="sMaYzG-gu67RRJvfcKwI-11" edge="1">
          <mxGeometry relative="1" as="geometry">
            <mxPoint x="89" y="1110" as="sourcePoint" />
            <mxPoint x="256" y="1148" as="targetPoint" />
          </mxGeometry>
        </mxCell>
        <mxCell id="sMaYzG-gu67RRJvfcKwI-7" value="" style="rounded=0;orthogonalLoop=1;jettySize=auto;html=1;endArrow=block;endFill=0;elbow=vertical;" parent="1" source="a055b9ZYZXAjmYekXefy-2" target="sMaYzG-gu67RRJvfcKwI-11" edge="1">
          <mxGeometry relative="1" as="geometry">
            <mxPoint x="79" y="487" as="sourcePoint" />
            <mxPoint x="325" y="636" as="targetPoint" />
          </mxGeometry>
        </mxCell>
        <mxCell id="sMaYzG-gu67RRJvfcKwI-11" value="Авторизованный&lt;br&gt;пользователь" style="shape=umlActor;verticalLabelPosition=bottom;verticalAlign=top;html=1;outlineConnect=0;" parent="1" vertex="1">
          <mxGeometry x="39" y="593" width="30" height="60" as="geometry" />
        </mxCell>
        <mxCell id="sMaYzG-gu67RRJvfcKwI-14" value="&lt;font style=&quot;font-size: 12px;&quot;&gt;Посмотреть&amp;nbsp;&lt;span style=&quot;line-height: 107%;&quot;&gt;заказанные гостями услуги&amp;nbsp;&lt;/span&gt;&lt;/font&gt;" style="ellipse;whiteSpace=wrap;html=1;" parent="1" vertex="1">
          <mxGeometry x="179" y="745" width="140" height="70" as="geometry" />
        </mxCell>
        <mxCell id="sMaYzG-gu67RRJvfcKwI-15" value="" style="rounded=0;orthogonalLoop=1;jettySize=auto;html=1;endArrow=none;endFill=0;elbow=vertical;" parent="1" source="sMaYzG-gu67RRJvfcKwI-2" target="sMaYzG-gu67RRJvfcKwI-14" edge="1">
          <mxGeometry relative="1" as="geometry">
            <mxPoint x="79" y="616" as="sourcePoint" />
            <mxPoint x="198" y="582" as="targetPoint" />
          </mxGeometry>
        </mxCell>
        <mxCell id="sMaYzG-gu67RRJvfcKwI-16" value="Редактировать статус услуги" style="ellipse;whiteSpace=wrap;html=1;" parent="1" vertex="1">
          <mxGeometry x="440" y="745" width="140" height="70" as="geometry" />
        </mxCell>
        <mxCell id="sMaYzG-gu67RRJvfcKwI-17" value="&amp;lt;&amp;lt;extend&amp;gt;&amp;gt;" style="html=1;verticalAlign=bottom;labelBackgroundColor=none;endArrow=open;endFill=0;dashed=1;rounded=0;elbow=vertical;" parent="1" source="sMaYzG-gu67RRJvfcKwI-16" target="sMaYzG-gu67RRJvfcKwI-14" edge="1">
          <mxGeometry x="-0.0083" width="160" relative="1" as="geometry">
            <mxPoint x="410" y="565" as="sourcePoint" />
            <mxPoint x="329" y="565" as="targetPoint" />
            <mxPoint as="offset" />
          </mxGeometry>
        </mxCell>
        <mxCell id="sMaYzG-gu67RRJvfcKwI-18" value="Получать уведомления" style="ellipse;whiteSpace=wrap;html=1;" parent="1" vertex="1">
          <mxGeometry x="179" y="584" width="140" height="70" as="geometry" />
        </mxCell>
        <mxCell id="sMaYzG-gu67RRJvfcKwI-19" value="Отправлять уведомления" style="ellipse;whiteSpace=wrap;html=1;" parent="1" vertex="1">
          <mxGeometry x="179" y="875" width="140" height="70" as="geometry" />
        </mxCell>
        <mxCell id="sMaYzG-gu67RRJvfcKwI-20" value="" style="rounded=0;orthogonalLoop=1;jettySize=auto;html=1;endArrow=none;endFill=0;elbow=vertical;" parent="1" source="sMaYzG-gu67RRJvfcKwI-2" target="sMaYzG-gu67RRJvfcKwI-19" edge="1">
          <mxGeometry relative="1" as="geometry">
            <mxPoint x="79" y="790" as="sourcePoint" />
            <mxPoint x="189" y="790" as="targetPoint" />
          </mxGeometry>
        </mxCell>
        <mxCell id="sMaYzG-gu67RRJvfcKwI-21" value="" style="rounded=0;orthogonalLoop=1;jettySize=auto;html=1;endArrow=none;endFill=0;elbow=vertical;" parent="1" source="sMaYzG-gu67RRJvfcKwI-11" target="sMaYzG-gu67RRJvfcKwI-18" edge="1">
          <mxGeometry relative="1" as="geometry">
            <mxPoint x="79" y="659" as="sourcePoint" />
            <mxPoint x="198" y="625" as="targetPoint" />
          </mxGeometry>
        </mxCell>
        <mxCell id="sMaYzG-gu67RRJvfcKwI-22" value="&lt;font style=&quot;font-size: 12px;&quot;&gt;Посмотреть&amp;nbsp;&lt;span style=&quot;line-height: 107%;&quot;&gt;номера&lt;/span&gt;&lt;/font&gt;" style="ellipse;whiteSpace=wrap;html=1;" parent="1" vertex="1">
          <mxGeometry x="310" y="815" width="140" height="70" as="geometry" />
        </mxCell>
        <mxCell id="sMaYzG-gu67RRJvfcKwI-23" value="" style="rounded=0;orthogonalLoop=1;jettySize=auto;html=1;endArrow=none;endFill=0;elbow=vertical;" parent="1" source="sMaYzG-gu67RRJvfcKwI-2" target="sMaYzG-gu67RRJvfcKwI-22" edge="1">
          <mxGeometry relative="1" as="geometry">
            <mxPoint x="79" y="790" as="sourcePoint" />
            <mxPoint x="208" y="592" as="targetPoint" />
          </mxGeometry>
        </mxCell>
        <mxCell id="sMaYzG-gu67RRJvfcKwI-24" value="Редактировать статус номера" style="ellipse;whiteSpace=wrap;html=1;" parent="1" vertex="1">
          <mxGeometry x="550" y="815" width="140" height="70" as="geometry" />
        </mxCell>
        <mxCell id="sMaYzG-gu67RRJvfcKwI-25" value="&amp;lt;&amp;lt;extend&amp;gt;&amp;gt;" style="html=1;verticalAlign=bottom;labelBackgroundColor=none;endArrow=open;endFill=0;dashed=1;rounded=0;elbow=vertical;" parent="1" source="sMaYzG-gu67RRJvfcKwI-24" target="sMaYzG-gu67RRJvfcKwI-22" edge="1">
          <mxGeometry x="-0.0083" width="160" relative="1" as="geometry">
            <mxPoint x="420" y="575" as="sourcePoint" />
            <mxPoint x="339" y="575" as="targetPoint" />
            <mxPoint as="offset" />
          </mxGeometry>
        </mxCell>
        <mxCell id="sMaYzG-gu67RRJvfcKwI-28" value="Оставить отзыв" style="ellipse;whiteSpace=wrap;html=1;" parent="1" vertex="1">
          <mxGeometry x="179" y="424" width="140" height="70" as="geometry" />
        </mxCell>
        <mxCell id="sMaYzG-gu67RRJvfcKwI-29" value="Удалить отзыв" style="ellipse;whiteSpace=wrap;html=1;" parent="1" vertex="1">
          <mxGeometry x="179" y="344" width="140" height="70" as="geometry" />
        </mxCell>
        <mxCell id="sMaYzG-gu67RRJvfcKwI-30" value="" style="rounded=0;orthogonalLoop=1;jettySize=auto;html=1;endArrow=none;endFill=0;elbow=vertical;" parent="1" source="a055b9ZYZXAjmYekXefy-2" target="sMaYzG-gu67RRJvfcKwI-29" edge="1">
          <mxGeometry relative="1" as="geometry">
            <mxPoint x="79" y="315" as="sourcePoint" />
            <mxPoint x="195" y="342" as="targetPoint" />
          </mxGeometry>
        </mxCell>
        <mxCell id="sMaYzG-gu67RRJvfcKwI-31" value="" style="rounded=0;orthogonalLoop=1;jettySize=auto;html=1;endArrow=none;endFill=0;elbow=vertical;" parent="1" source="a055b9ZYZXAjmYekXefy-2" target="sMaYzG-gu67RRJvfcKwI-28" edge="1">
          <mxGeometry relative="1" as="geometry">
            <mxPoint x="79" y="314" as="sourcePoint" />
            <mxPoint x="613" y="389" as="targetPoint" />
          </mxGeometry>
        </mxCell>
        <mxCell id="sMaYzG-gu67RRJvfcKwI-32" value="" style="rounded=0;orthogonalLoop=1;jettySize=auto;html=1;endArrow=none;endFill=0;elbow=vertical;" parent="1" source="a055b9ZYZXAjmYekXefy-2" target="8lR-f3cnY7n3PkXoEfy2-2" edge="1">
          <mxGeometry relative="1" as="geometry">
            <mxPoint x="69" y="302" as="sourcePoint" />
            <mxPoint x="600" y="302" as="targetPoint" />
          </mxGeometry>
        </mxCell>
        <mxCell id="8lR-f3cnY7n3PkXoEfy2-2" value="Посмотреть историю заказанных услуг" style="ellipse;whiteSpace=wrap;html=1;" parent="1" vertex="1">
          <mxGeometry x="179" y="262" width="140" height="70" as="geometry" />
        </mxCell>
        <mxCell id="r4gBYM95CPrJIBEMi4eg-1" value="Создать роль" style="ellipse;whiteSpace=wrap;html=1;" vertex="1" parent="1">
          <mxGeometry x="319" y="1040" width="140" height="70" as="geometry" />
        </mxCell>
        <mxCell id="r4gBYM95CPrJIBEMi4eg-2" value="" style="rounded=0;orthogonalLoop=1;jettySize=auto;html=1;endArrow=none;endFill=0;elbow=vertical;" edge="1" parent="1" target="r4gBYM95CPrJIBEMi4eg-1" source="0_W0DPVKqMBV8tbLmR9D-4">
          <mxGeometry relative="1" as="geometry">
            <mxPoint x="70" y="1040" as="sourcePoint" />
            <mxPoint x="361" y="877" as="targetPoint" />
          </mxGeometry>
        </mxCell>
        <mxCell id="r4gBYM95CPrJIBEMi4eg-3" value="Удалить роль" style="ellipse;whiteSpace=wrap;html=1;" vertex="1" parent="1">
          <mxGeometry x="319" y="1130" width="140" height="70" as="geometry" />
        </mxCell>
        <mxCell id="r4gBYM95CPrJIBEMi4eg-4" value="" style="rounded=0;orthogonalLoop=1;jettySize=auto;html=1;endArrow=none;endFill=0;elbow=vertical;" edge="1" parent="1" target="r4gBYM95CPrJIBEMi4eg-3" source="0_W0DPVKqMBV8tbLmR9D-4">
          <mxGeometry relative="1" as="geometry">
            <mxPoint x="70" y="1060" as="sourcePoint" />
            <mxPoint x="451" y="812.5" as="targetPoint" />
          </mxGeometry>
        </mxCell>
        <mxCell id="r4gBYM95CPrJIBEMi4eg-5" value="Присвоить роль" style="ellipse;whiteSpace=wrap;html=1;" vertex="1" parent="1">
          <mxGeometry x="200" y="1190" width="140" height="70" as="geometry" />
        </mxCell>
        <mxCell id="r4gBYM95CPrJIBEMi4eg-6" value="" style="rounded=0;orthogonalLoop=1;jettySize=auto;html=1;endArrow=none;endFill=0;elbow=vertical;" edge="1" parent="1" target="r4gBYM95CPrJIBEMi4eg-5" source="0_W0DPVKqMBV8tbLmR9D-4">
          <mxGeometry relative="1" as="geometry">
            <mxPoint x="70" y="1070" as="sourcePoint" />
            <mxPoint x="571" y="902.5" as="targetPoint" />
            <Array as="points" />
          </mxGeometry>
        </mxCell>
        <mxCell id="r4gBYM95CPrJIBEMi4eg-11" value="Редактировать роль" style="ellipse;whiteSpace=wrap;html=1;" vertex="1" parent="1">
          <mxGeometry x="550" y="1040" width="140" height="70" as="geometry" />
        </mxCell>
        <mxCell id="r4gBYM95CPrJIBEMi4eg-12" value="&amp;lt;&amp;lt;extend&amp;gt;&amp;gt;" style="html=1;verticalAlign=bottom;labelBackgroundColor=none;endArrow=open;endFill=0;dashed=1;rounded=0;elbow=vertical;entryX=1;entryY=0.5;entryDx=0;entryDy=0;exitX=0;exitY=0.5;exitDx=0;exitDy=0;" edge="1" parent="1" source="r4gBYM95CPrJIBEMi4eg-11" target="r4gBYM95CPrJIBEMi4eg-1">
          <mxGeometry x="-0.0083" width="160" relative="1" as="geometry">
            <mxPoint x="570" y="1074.5" as="sourcePoint" />
            <mxPoint x="470" y="1074.5" as="targetPoint" />
            <mxPoint as="offset" />
          </mxGeometry>
        </mxCell>
      </root>
    </mxGraphModel>
  </diagram>
  <diagram name="UseCases1" id="BgdLD0TXe7PFEAUTf3P-">
    <mxGraphModel dx="1036" dy="614" grid="1" gridSize="10" guides="1" tooltips="1" connect="1" arrows="1" fold="1" page="1" pageScale="1" pageWidth="827" pageHeight="1169" math="0" shadow="0">
      <root>
        <mxCell id="aAsLC63rlCP0TX_D4hY5-0" />
        <mxCell id="aAsLC63rlCP0TX_D4hY5-1" parent="aAsLC63rlCP0TX_D4hY5-0" />
        <mxCell id="aAsLC63rlCP0TX_D4hY5-2" value="Неавторизованный&lt;br&gt;пользователь" style="shape=umlActor;verticalLabelPosition=bottom;verticalAlign=top;html=1;outlineConnect=0;" parent="aAsLC63rlCP0TX_D4hY5-1" vertex="1">
          <mxGeometry x="39" y="64" width="30" height="60" as="geometry" />
        </mxCell>
        <mxCell id="aAsLC63rlCP0TX_D4hY5-3" value="Гость" style="shape=umlActor;verticalLabelPosition=bottom;verticalAlign=top;html=1;outlineConnect=0;" parent="aAsLC63rlCP0TX_D4hY5-1" vertex="1">
          <mxGeometry x="39" y="314" width="30" height="60" as="geometry" />
        </mxCell>
        <mxCell id="aAsLC63rlCP0TX_D4hY5-5" value="Войти в приложение" style="ellipse;whiteSpace=wrap;html=1;" parent="aAsLC63rlCP0TX_D4hY5-1" vertex="1">
          <mxGeometry x="179" y="16" width="140" height="70" as="geometry" />
        </mxCell>
        <mxCell id="aAsLC63rlCP0TX_D4hY5-6" value="Зарегистрироваться" style="ellipse;whiteSpace=wrap;html=1;" parent="aAsLC63rlCP0TX_D4hY5-1" vertex="1">
          <mxGeometry x="400" y="16" width="140" height="70" as="geometry" />
        </mxCell>
        <mxCell id="aAsLC63rlCP0TX_D4hY5-8" style="edgeStyle=none;rounded=0;orthogonalLoop=1;jettySize=auto;html=1;entryX=0.5;entryY=0;entryDx=0;entryDy=0;endArrow=none;endFill=0;elbow=vertical;" parent="aAsLC63rlCP0TX_D4hY5-1" edge="1">
          <mxGeometry relative="1" as="geometry">
            <mxPoint x="230" y="86" as="sourcePoint" />
            <mxPoint x="230" y="86" as="targetPoint" />
          </mxGeometry>
        </mxCell>
        <mxCell id="aAsLC63rlCP0TX_D4hY5-9" value="" style="edgeStyle=none;rounded=0;orthogonalLoop=1;jettySize=auto;html=1;endArrow=none;endFill=0;elbow=vertical;" parent="aAsLC63rlCP0TX_D4hY5-1" source="aAsLC63rlCP0TX_D4hY5-2" target="aAsLC63rlCP0TX_D4hY5-5" edge="1">
          <mxGeometry relative="1" as="geometry">
            <mxPoint x="69" y="39" as="sourcePoint" />
            <mxPoint x="179" y="39" as="targetPoint" />
          </mxGeometry>
        </mxCell>
        <mxCell id="aAsLC63rlCP0TX_D4hY5-10" value="&amp;lt;&amp;lt;extend&amp;gt;&amp;gt;" style="html=1;verticalAlign=bottom;labelBackgroundColor=none;endArrow=open;endFill=0;dashed=1;rounded=0;elbow=vertical;" parent="aAsLC63rlCP0TX_D4hY5-1" source="aAsLC63rlCP0TX_D4hY5-6" target="aAsLC63rlCP0TX_D4hY5-5" edge="1">
          <mxGeometry width="160" relative="1" as="geometry">
            <mxPoint x="480" y="39" as="sourcePoint" />
            <mxPoint x="319" y="39" as="targetPoint" />
          </mxGeometry>
        </mxCell>
        <object placeholders="1" c4Name="" c4Type="SystemScopeBoundary" c4Application="Web Site" label="&lt;font style=&quot;font-size: 16px&quot;&gt;&lt;b&gt;&lt;div style=&quot;text-align: left&quot;&gt;%c4Name%&lt;/div&gt;&lt;/b&gt;&lt;/font&gt;&lt;div style=&quot;text-align: left&quot;&gt;[%c4Application%]&lt;/div&gt;" id="aAsLC63rlCP0TX_D4hY5-12">
          <mxCell style="rounded=1;fontSize=11;whiteSpace=wrap;html=1;dashed=1;arcSize=20;fillColor=none;strokeColor=#666666;fontColor=#333333;labelBackgroundColor=none;align=left;verticalAlign=bottom;labelBorderColor=none;spacingTop=0;spacing=10;dashPattern=8 4;metaEdit=1;rotatable=0;perimeter=rectanglePerimeter;noLabel=0;labelPadding=0;allowArrows=0;connectable=0;expand=0;recursiveResize=0;editable=1;pointerEvents=0;absoluteArcSize=1;points=[[0.25,0,0],[0.5,0,0],[0.75,0,0],[1,0.25,0],[1,0.5,0],[1,0.75,0],[0.75,1,0],[0.5,1,0],[0.25,1,0],[0,0.75,0],[0,0.5,0],[0,0.25,0]];" parent="aAsLC63rlCP0TX_D4hY5-1" vertex="1">
            <mxGeometry x="120" y="7" width="680" height="1273" as="geometry" />
          </mxCell>
        </object>
        <mxCell id="aAsLC63rlCP0TX_D4hY5-13" value="" style="rounded=0;orthogonalLoop=1;jettySize=auto;html=1;endArrow=none;endFill=0;elbow=vertical;" parent="aAsLC63rlCP0TX_D4hY5-1" source="aAsLC63rlCP0TX_D4hY5-32" target="aAsLC63rlCP0TX_D4hY5-29" edge="1">
          <mxGeometry relative="1" as="geometry">
            <mxPoint x="79" y="614.5392156862745" as="sourcePoint" />
            <mxPoint x="370" y="819" as="targetPoint" />
          </mxGeometry>
        </mxCell>
        <mxCell id="aAsLC63rlCP0TX_D4hY5-14" value="" style="rounded=0;orthogonalLoop=1;jettySize=auto;html=1;endArrow=none;endFill=0;elbow=vertical;" parent="aAsLC63rlCP0TX_D4hY5-1" source="aAsLC63rlCP0TX_D4hY5-3" target="aAsLC63rlCP0TX_D4hY5-50" edge="1">
          <mxGeometry relative="1" as="geometry">
            <mxPoint x="70" y="463" as="sourcePoint" />
            <mxPoint x="370" y="538" as="targetPoint" />
          </mxGeometry>
        </mxCell>
        <mxCell id="aAsLC63rlCP0TX_D4hY5-15" value="Просмотреть профиль" style="ellipse;whiteSpace=wrap;html=1;" parent="aAsLC63rlCP0TX_D4hY5-1" vertex="1">
          <mxGeometry x="179" y="503" width="140" height="70" as="geometry" />
        </mxCell>
        <mxCell id="aAsLC63rlCP0TX_D4hY5-16" value="" style="rounded=0;orthogonalLoop=1;jettySize=auto;html=1;endArrow=none;endFill=0;elbow=vertical;" parent="aAsLC63rlCP0TX_D4hY5-1" source="aAsLC63rlCP0TX_D4hY5-32" target="aAsLC63rlCP0TX_D4hY5-15" edge="1">
          <mxGeometry relative="1" as="geometry">
            <mxPoint x="79" y="623.8795180722892" as="sourcePoint" />
            <mxPoint x="205.290909225091" y="791.2530122260243" as="targetPoint" />
          </mxGeometry>
        </mxCell>
        <mxCell id="aAsLC63rlCP0TX_D4hY5-17" value="Посмотреть историю броней" style="ellipse;whiteSpace=wrap;html=1;" parent="aAsLC63rlCP0TX_D4hY5-1" vertex="1">
          <mxGeometry x="179" y="182" width="140" height="70" as="geometry" />
        </mxCell>
        <mxCell id="aAsLC63rlCP0TX_D4hY5-18" value="" style="rounded=0;orthogonalLoop=1;jettySize=auto;html=1;endArrow=none;endFill=0;elbow=vertical;" parent="aAsLC63rlCP0TX_D4hY5-1" source="aAsLC63rlCP0TX_D4hY5-3" target="aAsLC63rlCP0TX_D4hY5-17" edge="1">
          <mxGeometry relative="1" as="geometry">
            <mxPoint x="79" y="466.98305084745766" as="sourcePoint" />
            <mxPoint x="266.91338119795296" y="642.156541794702" as="targetPoint" />
          </mxGeometry>
        </mxCell>
        <mxCell id="aAsLC63rlCP0TX_D4hY5-21" value="Забронировать номер" style="ellipse;whiteSpace=wrap;html=1;" parent="aAsLC63rlCP0TX_D4hY5-1" vertex="1">
          <mxGeometry x="400" y="182" width="140" height="70" as="geometry" />
        </mxCell>
        <mxCell id="aAsLC63rlCP0TX_D4hY5-22" value="&amp;lt;&amp;lt;extend&amp;gt;&amp;gt;" style="html=1;verticalAlign=bottom;labelBackgroundColor=none;endArrow=open;endFill=0;dashed=1;rounded=0;elbow=vertical;" parent="aAsLC63rlCP0TX_D4hY5-1" source="aAsLC63rlCP0TX_D4hY5-21" target="aAsLC63rlCP0TX_D4hY5-17" edge="1">
          <mxGeometry x="-0.0123" width="160" relative="1" as="geometry">
            <mxPoint x="533.5868500746619" y="781.2732971487799" as="sourcePoint" />
            <mxPoint x="329.9974746830583" y="601.9987373415292" as="targetPoint" />
            <mxPoint as="offset" />
          </mxGeometry>
        </mxCell>
        <mxCell id="aAsLC63rlCP0TX_D4hY5-23" value="Редактировать профиль" style="ellipse;whiteSpace=wrap;html=1;" parent="aAsLC63rlCP0TX_D4hY5-1" vertex="1">
          <mxGeometry x="400" y="503" width="140" height="70" as="geometry" />
        </mxCell>
        <mxCell id="aAsLC63rlCP0TX_D4hY5-24" value="&amp;lt;&amp;lt;extend&amp;gt;&amp;gt;" style="html=1;verticalAlign=bottom;labelBackgroundColor=none;endArrow=open;endFill=0;dashed=1;rounded=0;elbow=vertical;" parent="aAsLC63rlCP0TX_D4hY5-1" source="aAsLC63rlCP0TX_D4hY5-23" target="aAsLC63rlCP0TX_D4hY5-15" edge="1">
          <mxGeometry x="-0.0123" width="160" relative="1" as="geometry">
            <mxPoint x="503.0868500746619" y="1042.0232971487799" as="sourcePoint" />
            <mxPoint x="299.4974746830583" y="1003.7487373415292" as="targetPoint" />
            <mxPoint as="offset" />
          </mxGeometry>
        </mxCell>
        <mxCell id="aAsLC63rlCP0TX_D4hY5-25" value="Заказать услугу" style="ellipse;whiteSpace=wrap;html=1;" parent="aAsLC63rlCP0TX_D4hY5-1" vertex="1">
          <mxGeometry x="400" y="262" width="140" height="70" as="geometry" />
        </mxCell>
        <mxCell id="aAsLC63rlCP0TX_D4hY5-26" value="&amp;lt;&amp;lt;extend&amp;gt;&amp;gt;" style="html=1;verticalAlign=bottom;labelBackgroundColor=none;endArrow=open;endFill=0;dashed=1;rounded=0;elbow=vertical;" parent="aAsLC63rlCP0TX_D4hY5-1" source="aAsLC63rlCP0TX_D4hY5-25" target="aAsLC63rlCP0TX_D4hY5-50" edge="1">
          <mxGeometry x="-0.0123" y="-3" width="160" relative="1" as="geometry">
            <mxPoint x="657.4868500746619" y="727.1632971487799" as="sourcePoint" />
            <mxPoint x="550" y="632" as="targetPoint" />
            <mxPoint as="offset" />
          </mxGeometry>
        </mxCell>
        <mxCell id="aAsLC63rlCP0TX_D4hY5-27" value="Сотрудник" style="shape=umlActor;verticalLabelPosition=bottom;verticalAlign=top;html=1;outlineConnect=0;" parent="aAsLC63rlCP0TX_D4hY5-1" vertex="1">
          <mxGeometry x="39" y="815" width="30" height="60" as="geometry" />
        </mxCell>
        <mxCell id="aAsLC63rlCP0TX_D4hY5-28" value="" style="endArrow=block;startArrow=none;endFill=0;startFill=0;endSize=8;html=1;rounded=0;exitX=0.5;exitY=0;exitDx=0;exitDy=0;exitPerimeter=0;" parent="aAsLC63rlCP0TX_D4hY5-1" source="Y13x7AvVbdhbVM5cLnpm-3" target="aAsLC63rlCP0TX_D4hY5-27" edge="1">
          <mxGeometry width="160" relative="1" as="geometry">
            <mxPoint x="54" y="1009" as="sourcePoint" />
            <mxPoint x="64" y="877" as="targetPoint" />
          </mxGeometry>
        </mxCell>
        <mxCell id="aAsLC63rlCP0TX_D4hY5-29" value="Выйти из приложения" style="ellipse;whiteSpace=wrap;html=1;" parent="aAsLC63rlCP0TX_D4hY5-1" vertex="1">
          <mxGeometry x="179" y="665" width="140" height="70" as="geometry" />
        </mxCell>
        <mxCell id="aAsLC63rlCP0TX_D4hY5-30" value="" style="rounded=0;orthogonalLoop=1;jettySize=auto;html=1;endArrow=block;endFill=0;elbow=vertical;" parent="aAsLC63rlCP0TX_D4hY5-1" source="aAsLC63rlCP0TX_D4hY5-27" target="aAsLC63rlCP0TX_D4hY5-32" edge="1">
          <mxGeometry relative="1" as="geometry">
            <mxPoint x="89" y="1110" as="sourcePoint" />
            <mxPoint x="256" y="1148" as="targetPoint" />
          </mxGeometry>
        </mxCell>
        <mxCell id="aAsLC63rlCP0TX_D4hY5-31" value="" style="rounded=0;orthogonalLoop=1;jettySize=auto;html=1;endArrow=block;endFill=0;elbow=vertical;" parent="aAsLC63rlCP0TX_D4hY5-1" source="aAsLC63rlCP0TX_D4hY5-3" target="aAsLC63rlCP0TX_D4hY5-32" edge="1">
          <mxGeometry relative="1" as="geometry">
            <mxPoint x="79" y="487" as="sourcePoint" />
            <mxPoint x="325" y="636" as="targetPoint" />
          </mxGeometry>
        </mxCell>
        <mxCell id="aAsLC63rlCP0TX_D4hY5-32" value="Авторизованный&lt;br&gt;пользователь" style="shape=umlActor;verticalLabelPosition=bottom;verticalAlign=top;html=1;outlineConnect=0;" parent="aAsLC63rlCP0TX_D4hY5-1" vertex="1">
          <mxGeometry x="39" y="593" width="30" height="60" as="geometry" />
        </mxCell>
        <mxCell id="aAsLC63rlCP0TX_D4hY5-33" value="&lt;font style=&quot;font-size: 12px;&quot;&gt;Посмотреть&amp;nbsp;&lt;span style=&quot;line-height: 107%;&quot;&gt;заказанные гостями услуги&amp;nbsp;&lt;/span&gt;&lt;/font&gt;" style="ellipse;whiteSpace=wrap;html=1;" parent="aAsLC63rlCP0TX_D4hY5-1" vertex="1">
          <mxGeometry x="179" y="745" width="140" height="70" as="geometry" />
        </mxCell>
        <mxCell id="aAsLC63rlCP0TX_D4hY5-34" value="" style="rounded=0;orthogonalLoop=1;jettySize=auto;html=1;endArrow=none;endFill=0;elbow=vertical;" parent="aAsLC63rlCP0TX_D4hY5-1" source="aAsLC63rlCP0TX_D4hY5-27" target="aAsLC63rlCP0TX_D4hY5-33" edge="1">
          <mxGeometry relative="1" as="geometry">
            <mxPoint x="79" y="616" as="sourcePoint" />
            <mxPoint x="198" y="582" as="targetPoint" />
          </mxGeometry>
        </mxCell>
        <mxCell id="aAsLC63rlCP0TX_D4hY5-35" value="Редактировать статус услуги" style="ellipse;whiteSpace=wrap;html=1;" parent="aAsLC63rlCP0TX_D4hY5-1" vertex="1">
          <mxGeometry x="440" y="745" width="140" height="70" as="geometry" />
        </mxCell>
        <mxCell id="aAsLC63rlCP0TX_D4hY5-36" value="&amp;lt;&amp;lt;extend&amp;gt;&amp;gt;" style="html=1;verticalAlign=bottom;labelBackgroundColor=none;endArrow=open;endFill=0;dashed=1;rounded=0;elbow=vertical;" parent="aAsLC63rlCP0TX_D4hY5-1" source="aAsLC63rlCP0TX_D4hY5-35" target="aAsLC63rlCP0TX_D4hY5-33" edge="1">
          <mxGeometry x="-0.0083" width="160" relative="1" as="geometry">
            <mxPoint x="410" y="565" as="sourcePoint" />
            <mxPoint x="329" y="565" as="targetPoint" />
            <mxPoint as="offset" />
          </mxGeometry>
        </mxCell>
        <mxCell id="aAsLC63rlCP0TX_D4hY5-37" value="Получать уведомления" style="ellipse;whiteSpace=wrap;html=1;" parent="aAsLC63rlCP0TX_D4hY5-1" vertex="1">
          <mxGeometry x="179" y="584" width="140" height="70" as="geometry" />
        </mxCell>
        <mxCell id="aAsLC63rlCP0TX_D4hY5-38" value="Отправлять уведомления" style="ellipse;whiteSpace=wrap;html=1;" parent="aAsLC63rlCP0TX_D4hY5-1" vertex="1">
          <mxGeometry x="179" y="875" width="140" height="70" as="geometry" />
        </mxCell>
        <mxCell id="aAsLC63rlCP0TX_D4hY5-39" value="" style="rounded=0;orthogonalLoop=1;jettySize=auto;html=1;endArrow=none;endFill=0;elbow=vertical;" parent="aAsLC63rlCP0TX_D4hY5-1" source="aAsLC63rlCP0TX_D4hY5-27" target="aAsLC63rlCP0TX_D4hY5-38" edge="1">
          <mxGeometry relative="1" as="geometry">
            <mxPoint x="79" y="790" as="sourcePoint" />
            <mxPoint x="189" y="790" as="targetPoint" />
          </mxGeometry>
        </mxCell>
        <mxCell id="aAsLC63rlCP0TX_D4hY5-40" value="" style="rounded=0;orthogonalLoop=1;jettySize=auto;html=1;endArrow=none;endFill=0;elbow=vertical;" parent="aAsLC63rlCP0TX_D4hY5-1" source="aAsLC63rlCP0TX_D4hY5-32" target="aAsLC63rlCP0TX_D4hY5-37" edge="1">
          <mxGeometry relative="1" as="geometry">
            <mxPoint x="79" y="659" as="sourcePoint" />
            <mxPoint x="198" y="625" as="targetPoint" />
          </mxGeometry>
        </mxCell>
        <mxCell id="aAsLC63rlCP0TX_D4hY5-41" value="&lt;font style=&quot;font-size: 12px;&quot;&gt;Посмотреть&amp;nbsp;&lt;span style=&quot;line-height: 107%;&quot;&gt;номера&lt;/span&gt;&lt;/font&gt;" style="ellipse;whiteSpace=wrap;html=1;" parent="aAsLC63rlCP0TX_D4hY5-1" vertex="1">
          <mxGeometry x="310" y="815" width="140" height="70" as="geometry" />
        </mxCell>
        <mxCell id="aAsLC63rlCP0TX_D4hY5-42" value="" style="rounded=0;orthogonalLoop=1;jettySize=auto;html=1;endArrow=none;endFill=0;elbow=vertical;" parent="aAsLC63rlCP0TX_D4hY5-1" source="aAsLC63rlCP0TX_D4hY5-27" target="aAsLC63rlCP0TX_D4hY5-41" edge="1">
          <mxGeometry relative="1" as="geometry">
            <mxPoint x="79" y="790" as="sourcePoint" />
            <mxPoint x="208" y="592" as="targetPoint" />
          </mxGeometry>
        </mxCell>
        <mxCell id="aAsLC63rlCP0TX_D4hY5-43" value="Редактировать статус номера" style="ellipse;whiteSpace=wrap;html=1;" parent="aAsLC63rlCP0TX_D4hY5-1" vertex="1">
          <mxGeometry x="550" y="815" width="140" height="70" as="geometry" />
        </mxCell>
        <mxCell id="aAsLC63rlCP0TX_D4hY5-44" value="&amp;lt;&amp;lt;extend&amp;gt;&amp;gt;" style="html=1;verticalAlign=bottom;labelBackgroundColor=none;endArrow=open;endFill=0;dashed=1;rounded=0;elbow=vertical;" parent="aAsLC63rlCP0TX_D4hY5-1" source="aAsLC63rlCP0TX_D4hY5-43" target="aAsLC63rlCP0TX_D4hY5-41" edge="1">
          <mxGeometry x="-0.0083" width="160" relative="1" as="geometry">
            <mxPoint x="420" y="575" as="sourcePoint" />
            <mxPoint x="339" y="575" as="targetPoint" />
            <mxPoint as="offset" />
          </mxGeometry>
        </mxCell>
        <mxCell id="aAsLC63rlCP0TX_D4hY5-45" value="Оставить отзыв" style="ellipse;whiteSpace=wrap;html=1;" parent="aAsLC63rlCP0TX_D4hY5-1" vertex="1">
          <mxGeometry x="179" y="424" width="140" height="70" as="geometry" />
        </mxCell>
        <mxCell id="aAsLC63rlCP0TX_D4hY5-46" value="Удалить отзыв" style="ellipse;whiteSpace=wrap;html=1;" parent="aAsLC63rlCP0TX_D4hY5-1" vertex="1">
          <mxGeometry x="179" y="344" width="140" height="70" as="geometry" />
        </mxCell>
        <mxCell id="aAsLC63rlCP0TX_D4hY5-47" value="" style="rounded=0;orthogonalLoop=1;jettySize=auto;html=1;endArrow=none;endFill=0;elbow=vertical;" parent="aAsLC63rlCP0TX_D4hY5-1" source="aAsLC63rlCP0TX_D4hY5-3" target="aAsLC63rlCP0TX_D4hY5-46" edge="1">
          <mxGeometry relative="1" as="geometry">
            <mxPoint x="79" y="315" as="sourcePoint" />
            <mxPoint x="195" y="342" as="targetPoint" />
          </mxGeometry>
        </mxCell>
        <mxCell id="aAsLC63rlCP0TX_D4hY5-48" value="" style="rounded=0;orthogonalLoop=1;jettySize=auto;html=1;endArrow=none;endFill=0;elbow=vertical;" parent="aAsLC63rlCP0TX_D4hY5-1" source="aAsLC63rlCP0TX_D4hY5-3" target="aAsLC63rlCP0TX_D4hY5-45" edge="1">
          <mxGeometry relative="1" as="geometry">
            <mxPoint x="79" y="314" as="sourcePoint" />
            <mxPoint x="613" y="389" as="targetPoint" />
            <Array as="points">
              <mxPoint x="130" y="390" />
            </Array>
          </mxGeometry>
        </mxCell>
        <mxCell id="aAsLC63rlCP0TX_D4hY5-49" value="" style="rounded=0;orthogonalLoop=1;jettySize=auto;html=1;endArrow=none;endFill=0;elbow=vertical;" parent="aAsLC63rlCP0TX_D4hY5-1" source="aAsLC63rlCP0TX_D4hY5-3" target="aAsLC63rlCP0TX_D4hY5-50" edge="1">
          <mxGeometry relative="1" as="geometry">
            <mxPoint x="69" y="302" as="sourcePoint" />
            <mxPoint x="600" y="302" as="targetPoint" />
          </mxGeometry>
        </mxCell>
        <mxCell id="aAsLC63rlCP0TX_D4hY5-50" value="Посмотреть историю заказанных услуг" style="ellipse;whiteSpace=wrap;html=1;" parent="aAsLC63rlCP0TX_D4hY5-1" vertex="1">
          <mxGeometry x="179" y="262" width="140" height="70" as="geometry" />
        </mxCell>
        <mxCell id="aAsLC63rlCP0TX_D4hY5-51" value="Посмотреть услуги отеля" style="ellipse;whiteSpace=wrap;html=1;" parent="aAsLC63rlCP0TX_D4hY5-1" vertex="1">
          <mxGeometry x="179" y="97" width="140" height="70" as="geometry" />
        </mxCell>
        <mxCell id="aAsLC63rlCP0TX_D4hY5-52" value="" style="edgeStyle=none;rounded=0;orthogonalLoop=1;jettySize=auto;html=1;endArrow=none;endFill=0;elbow=vertical;" parent="aAsLC63rlCP0TX_D4hY5-1" source="aAsLC63rlCP0TX_D4hY5-2" target="aAsLC63rlCP0TX_D4hY5-51" edge="1">
          <mxGeometry relative="1" as="geometry">
            <mxPoint x="79" y="61" as="sourcePoint" />
            <mxPoint x="189" y="61" as="targetPoint" />
          </mxGeometry>
        </mxCell>
        <mxCell id="z5LKAUEVUWIRnl7n8Ho4-0" value="Редактировать отзыв" style="ellipse;whiteSpace=wrap;html=1;" parent="aAsLC63rlCP0TX_D4hY5-1" vertex="1">
          <mxGeometry x="319" y="385" width="140" height="70" as="geometry" />
        </mxCell>
        <mxCell id="z5LKAUEVUWIRnl7n8Ho4-1" value="" style="rounded=0;orthogonalLoop=1;jettySize=auto;html=1;endArrow=none;endFill=0;elbow=vertical;" parent="aAsLC63rlCP0TX_D4hY5-1" target="z5LKAUEVUWIRnl7n8Ho4-0" edge="1">
          <mxGeometry relative="1" as="geometry">
            <mxPoint x="69" y="350" as="sourcePoint" />
            <mxPoint x="753" y="350" as="targetPoint" />
            <Array as="points">
              <mxPoint x="209" y="420" />
            </Array>
          </mxGeometry>
        </mxCell>
        <mxCell id="Y13x7AvVbdhbVM5cLnpm-0" value="Удалить учетную запись Сотруднику&amp;nbsp;" style="ellipse;whiteSpace=wrap;html=1;" vertex="1" parent="aAsLC63rlCP0TX_D4hY5-1">
          <mxGeometry x="470" y="960" width="140" height="70" as="geometry" />
        </mxCell>
        <mxCell id="Y13x7AvVbdhbVM5cLnpm-1" value="" style="rounded=0;orthogonalLoop=1;jettySize=auto;html=1;endArrow=none;endFill=0;elbow=vertical;" edge="1" parent="aAsLC63rlCP0TX_D4hY5-1" source="Y13x7AvVbdhbVM5cLnpm-3" target="Y13x7AvVbdhbVM5cLnpm-0">
          <mxGeometry relative="1" as="geometry">
            <mxPoint x="114" y="450" as="sourcePoint" />
            <mxPoint x="190" y="829" as="targetPoint" />
          </mxGeometry>
        </mxCell>
        <mxCell id="Y13x7AvVbdhbVM5cLnpm-2" value="" style="rounded=0;orthogonalLoop=1;jettySize=auto;html=1;endArrow=none;endFill=0;entryX=0;entryY=1;entryDx=0;entryDy=0;" edge="1" parent="aAsLC63rlCP0TX_D4hY5-1" source="Y13x7AvVbdhbVM5cLnpm-3" target="yP6ymC0H_For2shF9oOr-0">
          <mxGeometry relative="1" as="geometry">
            <mxPoint x="376" y="907" as="targetPoint" />
          </mxGeometry>
        </mxCell>
        <mxCell id="Y13x7AvVbdhbVM5cLnpm-3" value="Администратор" style="shape=umlActor;verticalLabelPosition=bottom;verticalAlign=top;html=1;outlineConnect=0;" vertex="1" parent="aAsLC63rlCP0TX_D4hY5-1">
          <mxGeometry x="39" y="1130" width="30" height="60" as="geometry" />
        </mxCell>
        <mxCell id="Y13x7AvVbdhbVM5cLnpm-4" value="Создать роль" style="ellipse;whiteSpace=wrap;html=1;" vertex="1" parent="aAsLC63rlCP0TX_D4hY5-1">
          <mxGeometry x="350" y="1060" width="140" height="70" as="geometry" />
        </mxCell>
        <mxCell id="Y13x7AvVbdhbVM5cLnpm-5" value="" style="rounded=0;orthogonalLoop=1;jettySize=auto;html=1;endArrow=none;endFill=0;elbow=vertical;" edge="1" parent="aAsLC63rlCP0TX_D4hY5-1" source="Y13x7AvVbdhbVM5cLnpm-3" target="Y13x7AvVbdhbVM5cLnpm-4">
          <mxGeometry relative="1" as="geometry">
            <mxPoint x="70" y="970" as="sourcePoint" />
            <mxPoint x="361" y="807" as="targetPoint" />
          </mxGeometry>
        </mxCell>
        <mxCell id="Y13x7AvVbdhbVM5cLnpm-6" value="Удалить роль" style="ellipse;whiteSpace=wrap;html=1;" vertex="1" parent="aAsLC63rlCP0TX_D4hY5-1">
          <mxGeometry x="350" y="1140" width="140" height="70" as="geometry" />
        </mxCell>
        <mxCell id="Y13x7AvVbdhbVM5cLnpm-7" value="" style="rounded=0;orthogonalLoop=1;jettySize=auto;html=1;endArrow=none;endFill=0;elbow=vertical;" edge="1" parent="aAsLC63rlCP0TX_D4hY5-1" source="Y13x7AvVbdhbVM5cLnpm-3" target="Y13x7AvVbdhbVM5cLnpm-6">
          <mxGeometry relative="1" as="geometry">
            <mxPoint x="70" y="990" as="sourcePoint" />
            <mxPoint x="451" y="742.5" as="targetPoint" />
          </mxGeometry>
        </mxCell>
        <mxCell id="Y13x7AvVbdhbVM5cLnpm-8" value="Присвоить роль" style="ellipse;whiteSpace=wrap;html=1;" vertex="1" parent="aAsLC63rlCP0TX_D4hY5-1">
          <mxGeometry x="200" y="1200" width="140" height="70" as="geometry" />
        </mxCell>
        <mxCell id="Y13x7AvVbdhbVM5cLnpm-9" value="" style="rounded=0;orthogonalLoop=1;jettySize=auto;html=1;endArrow=none;endFill=0;elbow=vertical;" edge="1" parent="aAsLC63rlCP0TX_D4hY5-1" source="Y13x7AvVbdhbVM5cLnpm-3" target="Y13x7AvVbdhbVM5cLnpm-8">
          <mxGeometry relative="1" as="geometry">
            <mxPoint x="70" y="1000" as="sourcePoint" />
            <mxPoint x="571" y="832.5" as="targetPoint" />
            <Array as="points" />
          </mxGeometry>
        </mxCell>
        <mxCell id="Y13x7AvVbdhbVM5cLnpm-10" value="Редактировать роль" style="ellipse;whiteSpace=wrap;html=1;" vertex="1" parent="aAsLC63rlCP0TX_D4hY5-1">
          <mxGeometry x="610" y="1060" width="140" height="70" as="geometry" />
        </mxCell>
        <mxCell id="Y13x7AvVbdhbVM5cLnpm-11" value="&amp;lt;&amp;lt;extend&amp;gt;&amp;gt;" style="html=1;verticalAlign=bottom;labelBackgroundColor=none;endArrow=open;endFill=0;dashed=1;rounded=0;elbow=vertical;entryX=1;entryY=0.5;entryDx=0;entryDy=0;exitX=0;exitY=0.5;exitDx=0;exitDy=0;" edge="1" parent="aAsLC63rlCP0TX_D4hY5-1" source="Y13x7AvVbdhbVM5cLnpm-10" target="Y13x7AvVbdhbVM5cLnpm-4">
          <mxGeometry x="-0.0083" width="160" relative="1" as="geometry">
            <mxPoint x="570" y="1004.5" as="sourcePoint" />
            <mxPoint x="470" y="1004.5" as="targetPoint" />
            <mxPoint as="offset" />
          </mxGeometry>
        </mxCell>
        <mxCell id="yP6ymC0H_For2shF9oOr-0" value="Создать учетную запись Сотруднику&amp;nbsp;" style="ellipse;whiteSpace=wrap;html=1;" vertex="1" parent="aAsLC63rlCP0TX_D4hY5-1">
          <mxGeometry x="360" y="910" width="140" height="70" as="geometry" />
        </mxCell>
      </root>
    </mxGraphModel>
  </diagram>
  <diagram id="C5RBs43oDa-KdzZeNtuy" name="Логическая модель данных">
    <mxGraphModel dx="1863" dy="-555" grid="1" gridSize="10" guides="1" tooltips="1" connect="1" arrows="1" fold="1" page="1" pageScale="1" pageWidth="827" pageHeight="1169" math="0" shadow="0">
      <root>
        <mxCell id="WIyWlLk6GJQsqaUBKTNV-0" />
        <mxCell id="WIyWlLk6GJQsqaUBKTNV-1" parent="WIyWlLk6GJQsqaUBKTNV-0" />
        <mxCell id="lMvEq-eA2TfPI9kC0k38-7" value="Логическая модель &lt;br&gt;данных Shhmoney" style="shape=umlFrame;tabWidth=110;tabHeight=30;tabPosition=left;html=1;boundedLbl=1;labelInHeader=1;width=140;height=30;" parent="WIyWlLk6GJQsqaUBKTNV-1" vertex="1">
          <mxGeometry x="-807" y="1180" width="797" height="1040" as="geometry" />
        </mxCell>
        <mxCell id="zkfFHV4jXpPFQw0GAbJ--0" value="Пользователь" style="swimlane;fontStyle=2;align=center;verticalAlign=top;childLayout=stackLayout;horizontal=1;startSize=26;horizontalStack=0;resizeParent=1;resizeLast=0;collapsible=1;marginBottom=0;rounded=0;shadow=0;strokeWidth=1;" parent="WIyWlLk6GJQsqaUBKTNV-1" vertex="1">
          <mxGeometry x="-508" y="1360" width="190" height="228" as="geometry">
            <mxRectangle x="230" y="140" width="160" height="26" as="alternateBounds" />
          </mxGeometry>
        </mxCell>
        <mxCell id="zkfFHV4jXpPFQw0GAbJ--4" value="" style="line;html=1;strokeWidth=1;align=left;verticalAlign=middle;spacingTop=-1;spacingLeft=3;spacingRight=3;rotatable=0;labelPosition=right;points=[];portConstraint=eastwest;" parent="zkfFHV4jXpPFQw0GAbJ--0" vertex="1">
          <mxGeometry y="26" width="190" height="8" as="geometry" />
        </mxCell>
        <mxCell id="lMvEq-eA2TfPI9kC0k38-6" value="Логин: текст" style="text;strokeColor=none;fillColor=none;align=left;verticalAlign=middle;spacingLeft=4;spacingRight=4;overflow=hidden;points=[[0,0.5],[1,0.5]];portConstraint=eastwest;rotatable=0;whiteSpace=wrap;html=1;" parent="zkfFHV4jXpPFQw0GAbJ--0" vertex="1">
          <mxGeometry y="34" width="190" height="30" as="geometry" />
        </mxCell>
        <mxCell id="P8tIChN-5osMAXRXv5WA-66" value="Пароль: текст" style="text;strokeColor=none;fillColor=none;align=left;verticalAlign=middle;spacingLeft=4;spacingRight=4;overflow=hidden;points=[[0,0.5],[1,0.5]];portConstraint=eastwest;rotatable=0;whiteSpace=wrap;html=1;" parent="zkfFHV4jXpPFQw0GAbJ--0" vertex="1">
          <mxGeometry y="64" width="190" height="30" as="geometry" />
        </mxCell>
        <mxCell id="P8tIChN-5osMAXRXv5WA-67" value="Имя: текст" style="text;strokeColor=none;fillColor=none;align=left;verticalAlign=middle;spacingLeft=4;spacingRight=4;overflow=hidden;points=[[0,0.5],[1,0.5]];portConstraint=eastwest;rotatable=0;whiteSpace=wrap;html=1;" parent="zkfFHV4jXpPFQw0GAbJ--0" vertex="1">
          <mxGeometry y="94" width="190" height="30" as="geometry" />
        </mxCell>
        <mxCell id="45bfKzL9RCiTo4QOY8nJ-0" value="Email: текст" style="text;strokeColor=none;fillColor=none;align=left;verticalAlign=middle;spacingLeft=4;spacingRight=4;overflow=hidden;points=[[0,0.5],[1,0.5]];portConstraint=eastwest;rotatable=0;whiteSpace=wrap;html=1;" parent="zkfFHV4jXpPFQw0GAbJ--0" vertex="1">
          <mxGeometry y="124" width="190" height="30" as="geometry" />
        </mxCell>
        <mxCell id="45bfKzL9RCiTo4QOY8nJ-1" value="Статус: текст" style="text;strokeColor=none;fillColor=none;align=left;verticalAlign=middle;spacingLeft=4;spacingRight=4;overflow=hidden;points=[[0,0.5],[1,0.5]];portConstraint=eastwest;rotatable=0;whiteSpace=wrap;html=1;" parent="zkfFHV4jXpPFQw0GAbJ--0" vertex="1">
          <mxGeometry y="154" width="190" height="30" as="geometry" />
        </mxCell>
        <mxCell id="45bfKzL9RCiTo4QOY8nJ-2" value="Дата истечения срока: текст" style="text;strokeColor=none;fillColor=none;align=left;verticalAlign=middle;spacingLeft=4;spacingRight=4;overflow=hidden;points=[[0,0.5],[1,0.5]];portConstraint=eastwest;rotatable=0;whiteSpace=wrap;html=1;" parent="zkfFHV4jXpPFQw0GAbJ--0" vertex="1">
          <mxGeometry y="184" width="190" height="30" as="geometry" />
        </mxCell>
        <mxCell id="zkfFHV4jXpPFQw0GAbJ--13" value="Расходы" style="swimlane;fontStyle=0;align=center;verticalAlign=top;childLayout=stackLayout;horizontal=1;startSize=26;horizontalStack=0;resizeParent=1;resizeLast=0;collapsible=1;marginBottom=0;rounded=0;shadow=0;strokeWidth=1;" parent="WIyWlLk6GJQsqaUBKTNV-1" vertex="1">
          <mxGeometry x="-780" y="1750" width="190" height="230" as="geometry">
            <mxRectangle x="340" y="380" width="170" height="26" as="alternateBounds" />
          </mxGeometry>
        </mxCell>
        <mxCell id="zkfFHV4jXpPFQw0GAbJ--15" value="" style="line;html=1;strokeWidth=1;align=left;verticalAlign=middle;spacingTop=-1;spacingLeft=3;spacingRight=3;rotatable=0;labelPosition=right;points=[];portConstraint=eastwest;" parent="zkfFHV4jXpPFQw0GAbJ--13" vertex="1">
          <mxGeometry y="26" width="190" height="8" as="geometry" />
        </mxCell>
        <mxCell id="P8tIChN-5osMAXRXv5WA-22" value="День: дата" style="text;strokeColor=none;fillColor=none;align=left;verticalAlign=middle;spacingLeft=4;spacingRight=4;overflow=hidden;points=[[0,0.5],[1,0.5]];portConstraint=eastwest;rotatable=0;whiteSpace=wrap;html=1;" parent="zkfFHV4jXpPFQw0GAbJ--13" vertex="1">
          <mxGeometry y="34" width="190" height="30" as="geometry" />
        </mxCell>
        <mxCell id="P8tIChN-5osMAXRXv5WA-23" value="Пользователь: Пользователь" style="text;strokeColor=none;fillColor=none;align=left;verticalAlign=middle;spacingLeft=4;spacingRight=4;overflow=hidden;points=[[0,0.5],[1,0.5]];portConstraint=eastwest;rotatable=0;whiteSpace=wrap;html=1;" parent="zkfFHV4jXpPFQw0GAbJ--13" vertex="1">
          <mxGeometry y="64" width="190" height="30" as="geometry" />
        </mxCell>
        <mxCell id="P8tIChN-5osMAXRXv5WA-24" value="Категория: Категория" style="text;strokeColor=none;fillColor=none;align=left;verticalAlign=middle;spacingLeft=4;spacingRight=4;overflow=hidden;points=[[0,0.5],[1,0.5]];portConstraint=eastwest;rotatable=0;whiteSpace=wrap;html=1;" parent="zkfFHV4jXpPFQw0GAbJ--13" vertex="1">
          <mxGeometry y="94" width="190" height="30" as="geometry" />
        </mxCell>
        <mxCell id="P8tIChN-5osMAXRXv5WA-25" value="Валюта: валюта" style="text;strokeColor=none;fillColor=none;align=left;verticalAlign=middle;spacingLeft=4;spacingRight=4;overflow=hidden;points=[[0,0.5],[1,0.5]];portConstraint=eastwest;rotatable=0;whiteSpace=wrap;html=1;" parent="zkfFHV4jXpPFQw0GAbJ--13" vertex="1">
          <mxGeometry y="124" width="190" height="30" as="geometry" />
        </mxCell>
        <mxCell id="7q1cOt3lcXniT5uqvXC3-3" value="Счет: счет" style="text;strokeColor=none;fillColor=none;align=left;verticalAlign=middle;spacingLeft=4;spacingRight=4;overflow=hidden;points=[[0,0.5],[1,0.5]];portConstraint=eastwest;rotatable=0;whiteSpace=wrap;html=1;" parent="zkfFHV4jXpPFQw0GAbJ--13" vertex="1">
          <mxGeometry y="154" width="190" height="30" as="geometry" />
        </mxCell>
        <mxCell id="7q1cOt3lcXniT5uqvXC3-4" value="Значение: дробное число" style="text;strokeColor=none;fillColor=none;align=left;verticalAlign=middle;spacingLeft=4;spacingRight=4;overflow=hidden;points=[[0,0.5],[1,0.5]];portConstraint=eastwest;rotatable=0;whiteSpace=wrap;html=1;" parent="zkfFHV4jXpPFQw0GAbJ--13" vertex="1">
          <mxGeometry y="184" width="190" height="30" as="geometry" />
        </mxCell>
        <mxCell id="zkfFHV4jXpPFQw0GAbJ--17" value="Категория" style="swimlane;fontStyle=0;align=center;verticalAlign=top;childLayout=stackLayout;horizontal=1;startSize=26;horizontalStack=0;resizeParent=1;resizeLast=0;collapsible=1;marginBottom=0;rounded=0;shadow=0;strokeWidth=1;" parent="WIyWlLk6GJQsqaUBKTNV-1" vertex="1">
          <mxGeometry x="-508" y="1664" width="190" height="160" as="geometry">
            <mxRectangle x="550" y="140" width="160" height="26" as="alternateBounds" />
          </mxGeometry>
        </mxCell>
        <mxCell id="zkfFHV4jXpPFQw0GAbJ--23" value="" style="line;html=1;strokeWidth=1;align=left;verticalAlign=middle;spacingTop=-1;spacingLeft=3;spacingRight=3;rotatable=0;labelPosition=right;points=[];portConstraint=eastwest;" parent="zkfFHV4jXpPFQw0GAbJ--17" vertex="1">
          <mxGeometry y="26" width="190" height="8" as="geometry" />
        </mxCell>
        <mxCell id="7q1cOt3lcXniT5uqvXC3-2" value="Идентификатор: текст" style="text;strokeColor=none;fillColor=none;align=left;verticalAlign=middle;spacingLeft=4;spacingRight=4;overflow=hidden;points=[[0,0.5],[1,0.5]];portConstraint=eastwest;rotatable=0;whiteSpace=wrap;html=1;" parent="zkfFHV4jXpPFQw0GAbJ--17" vertex="1">
          <mxGeometry y="34" width="190" height="30" as="geometry" />
        </mxCell>
        <mxCell id="P8tIChN-5osMAXRXv5WA-51" value="Вид: перечисление" style="text;strokeColor=none;fillColor=none;align=left;verticalAlign=middle;spacingLeft=4;spacingRight=4;overflow=hidden;points=[[0,0.5],[1,0.5]];portConstraint=eastwest;rotatable=0;whiteSpace=wrap;html=1;" parent="zkfFHV4jXpPFQw0GAbJ--17" vertex="1">
          <mxGeometry y="64" width="190" height="30" as="geometry" />
        </mxCell>
        <mxCell id="7q1cOt3lcXniT5uqvXC3-1" value="Тип: перечисление" style="text;strokeColor=none;fillColor=none;align=left;verticalAlign=middle;spacingLeft=4;spacingRight=4;overflow=hidden;points=[[0,0.5],[1,0.5]];portConstraint=eastwest;rotatable=0;whiteSpace=wrap;html=1;" parent="zkfFHV4jXpPFQw0GAbJ--17" vertex="1">
          <mxGeometry y="94" width="190" height="30" as="geometry" />
        </mxCell>
        <mxCell id="P8tIChN-5osMAXRXv5WA-28" value="Наименование: перечисление" style="text;strokeColor=none;fillColor=none;align=left;verticalAlign=middle;spacingLeft=4;spacingRight=4;overflow=hidden;points=[[0,0.5],[1,0.5]];portConstraint=eastwest;rotatable=0;whiteSpace=wrap;html=1;" parent="zkfFHV4jXpPFQw0GAbJ--17" vertex="1">
          <mxGeometry y="124" width="190" height="30" as="geometry" />
        </mxCell>
        <mxCell id="P8tIChN-5osMAXRXv5WA-5" value="Статьи" style="swimlane;fontStyle=0;align=center;verticalAlign=top;childLayout=stackLayout;horizontal=1;startSize=26;horizontalStack=0;resizeParent=1;resizeLast=0;collapsible=1;marginBottom=0;rounded=0;shadow=0;strokeWidth=1;" parent="WIyWlLk6GJQsqaUBKTNV-1" vertex="1">
          <mxGeometry x="-181" y="1203" width="154" height="100" as="geometry">
            <mxRectangle x="340" y="380" width="170" height="26" as="alternateBounds" />
          </mxGeometry>
        </mxCell>
        <mxCell id="P8tIChN-5osMAXRXv5WA-6" value="" style="line;html=1;strokeWidth=1;align=left;verticalAlign=middle;spacingTop=-1;spacingLeft=3;spacingRight=3;rotatable=0;labelPosition=right;points=[];portConstraint=eastwest;" parent="P8tIChN-5osMAXRXv5WA-5" vertex="1">
          <mxGeometry y="26" width="154" height="8" as="geometry" />
        </mxCell>
        <mxCell id="P8tIChN-5osMAXRXv5WA-7" value="Валюта" style="swimlane;fontStyle=0;align=center;verticalAlign=top;childLayout=stackLayout;horizontal=1;startSize=26;horizontalStack=0;resizeParent=1;resizeLast=0;collapsible=1;marginBottom=0;rounded=0;shadow=0;strokeWidth=1;" parent="WIyWlLk6GJQsqaUBKTNV-1" vertex="1">
          <mxGeometry x="-508" y="1850" width="190" height="160" as="geometry">
            <mxRectangle x="340" y="380" width="170" height="26" as="alternateBounds" />
          </mxGeometry>
        </mxCell>
        <mxCell id="P8tIChN-5osMAXRXv5WA-8" value="" style="line;html=1;strokeWidth=1;align=left;verticalAlign=middle;spacingTop=-1;spacingLeft=3;spacingRight=3;rotatable=0;labelPosition=right;points=[];portConstraint=eastwest;" parent="P8tIChN-5osMAXRXv5WA-7" vertex="1">
          <mxGeometry y="26" width="190" height="8" as="geometry" />
        </mxCell>
        <mxCell id="P8tIChN-5osMAXRXv5WA-27" value="Код: текст" style="text;strokeColor=none;fillColor=none;align=left;verticalAlign=middle;spacingLeft=4;spacingRight=4;overflow=hidden;points=[[0,0.5],[1,0.5]];portConstraint=eastwest;rotatable=0;whiteSpace=wrap;html=1;" parent="P8tIChN-5osMAXRXv5WA-7" vertex="1">
          <mxGeometry y="34" width="190" height="30" as="geometry" />
        </mxCell>
        <mxCell id="7q1cOt3lcXniT5uqvXC3-22" value="Наименование: текст" style="text;strokeColor=none;fillColor=none;align=left;verticalAlign=middle;spacingLeft=4;spacingRight=4;overflow=hidden;points=[[0,0.5],[1,0.5]];portConstraint=eastwest;rotatable=0;whiteSpace=wrap;html=1;" parent="P8tIChN-5osMAXRXv5WA-7" vertex="1">
          <mxGeometry y="64" width="190" height="30" as="geometry" />
        </mxCell>
        <mxCell id="lMvEq-eA2TfPI9kC0k38-4" value="Значение: дробное число" style="text;strokeColor=none;fillColor=none;align=left;verticalAlign=middle;spacingLeft=4;spacingRight=4;overflow=hidden;points=[[0,0.5],[1,0.5]];portConstraint=eastwest;rotatable=0;whiteSpace=wrap;html=1;" parent="P8tIChN-5osMAXRXv5WA-7" vertex="1">
          <mxGeometry y="94" width="190" height="30" as="geometry" />
        </mxCell>
        <mxCell id="P8tIChN-5osMAXRXv5WA-14" value="" style="endArrow=open;shadow=0;strokeWidth=1;rounded=0;endFill=1;edgeStyle=elbowEdgeStyle;elbow=vertical;" parent="WIyWlLk6GJQsqaUBKTNV-1" source="zkfFHV4jXpPFQw0GAbJ--0" target="zkfFHV4jXpPFQw0GAbJ--13" edge="1">
          <mxGeometry x="0.5" y="41" relative="1" as="geometry">
            <mxPoint x="-122" y="1154" as="sourcePoint" />
            <mxPoint x="48" y="1114" as="targetPoint" />
            <mxPoint x="-40" y="32" as="offset" />
            <Array as="points">
              <mxPoint x="-690" y="1390" />
              <mxPoint x="-690" y="1400" />
              <mxPoint x="-690" y="1494" />
              <mxPoint x="-672" y="1494" />
              <mxPoint x="-662" y="1554" />
              <mxPoint x="-262" y="1374" />
              <mxPoint x="-312" y="1544" />
              <mxPoint x="-357" y="1364" />
              <mxPoint x="-352" y="1474" />
              <mxPoint x="-342" y="1364" />
              <mxPoint x="-122" y="1174" />
              <mxPoint x="108" y="724" />
              <mxPoint x="-92" y="764" />
              <mxPoint x="-92" y="754" />
              <mxPoint x="8" y="754" />
              <mxPoint x="-132" y="864" />
              <mxPoint x="-52" y="1204" />
              <mxPoint x="-132" y="1214" />
            </Array>
          </mxGeometry>
        </mxCell>
        <mxCell id="P8tIChN-5osMAXRXv5WA-17" value="вносит,&amp;nbsp;редактирует,&lt;br&gt;удаляет, просматривает" style="text;html=1;resizable=0;points=[];;align=center;verticalAlign=middle;labelBackgroundColor=none;rounded=0;shadow=0;strokeWidth=1;fontSize=12;" parent="P8tIChN-5osMAXRXv5WA-14" vertex="1" connectable="0">
          <mxGeometry x="0.5" y="49" relative="1" as="geometry">
            <mxPoint x="31" y="-239" as="offset" />
          </mxGeometry>
        </mxCell>
        <mxCell id="P8tIChN-5osMAXRXv5WA-38" value="" style="endArrow=open;shadow=0;strokeWidth=1;rounded=0;endFill=1;edgeStyle=elbowEdgeStyle;elbow=vertical;" parent="WIyWlLk6GJQsqaUBKTNV-1" source="zkfFHV4jXpPFQw0GAbJ--0" target="7q1cOt3lcXniT5uqvXC3-12" edge="1">
          <mxGeometry x="0.5" y="41" relative="1" as="geometry">
            <mxPoint x="-132" y="1154" as="sourcePoint" />
            <mxPoint x="208" y="1264" as="targetPoint" />
            <mxPoint x="-40" y="32" as="offset" />
            <Array as="points">
              <mxPoint x="-145" y="1390" />
              <mxPoint x="-160" y="1390" />
              <mxPoint x="-140" y="1490" />
              <mxPoint x="-120" y="1490" />
              <mxPoint x="-135" y="1490" />
              <mxPoint x="-115" y="1630" />
              <mxPoint x="-775" y="1840" />
              <mxPoint x="-107" y="1494" />
              <mxPoint x="-167" y="1494" />
              <mxPoint x="-322" y="1594" />
              <mxPoint x="-352" y="1684" />
              <mxPoint x="-312" y="1534" />
              <mxPoint x="-232" y="1634" />
              <mxPoint x="-202" y="1504" />
              <mxPoint x="-192" y="1604" />
              <mxPoint x="38" y="1264" />
              <mxPoint x="-72" y="1204" />
              <mxPoint x="-82" y="1254" />
              <mxPoint x="48" y="1254" />
              <mxPoint x="-82" y="1404" />
              <mxPoint x="-72" y="1204" />
              <mxPoint x="-92" y="1404" />
              <mxPoint x="48" y="1404" />
              <mxPoint x="-92" y="1284" />
              <mxPoint x="-32" y="1404" />
              <mxPoint x="-92" y="1514" />
              <mxPoint x="-132" y="1204" />
              <mxPoint x="-212" y="1214" />
            </Array>
          </mxGeometry>
        </mxCell>
        <mxCell id="P8tIChN-5osMAXRXv5WA-41" value="вносит,&amp;nbsp;редактирует,&lt;br&gt;удаляет, просматривает" style="text;html=1;resizable=0;points=[];;align=center;verticalAlign=middle;labelBackgroundColor=none;rounded=0;shadow=0;strokeWidth=1;fontSize=12;" parent="P8tIChN-5osMAXRXv5WA-38" vertex="1" connectable="0">
          <mxGeometry x="0.5" y="49" relative="1" as="geometry">
            <mxPoint x="-144" y="-243" as="offset" />
          </mxGeometry>
        </mxCell>
        <mxCell id="P8tIChN-5osMAXRXv5WA-43" value="" style="endArrow=open;shadow=0;strokeWidth=1;rounded=0;endFill=1;edgeStyle=elbowEdgeStyle;elbow=vertical;" parent="WIyWlLk6GJQsqaUBKTNV-1" source="zkfFHV4jXpPFQw0GAbJ--0" target="zkfFHV4jXpPFQw0GAbJ--17" edge="1">
          <mxGeometry x="0.5" y="41" relative="1" as="geometry">
            <mxPoint x="308" y="1199" as="sourcePoint" />
            <mxPoint x="308" y="1279" as="targetPoint" />
            <mxPoint x="-40" y="32" as="offset" />
            <Array as="points">
              <mxPoint x="-413" y="1600" />
              <mxPoint x="-390" y="1620" />
              <mxPoint x="-432" y="1634" />
              <mxPoint x="-302" y="1564" />
              <mxPoint x="138" y="1014" />
              <mxPoint x="198" y="1104" />
              <mxPoint x="228" y="1259" />
            </Array>
          </mxGeometry>
        </mxCell>
        <mxCell id="P8tIChN-5osMAXRXv5WA-46" value="добавляет,&amp;nbsp;редактирует,&lt;br&gt;удаляет,&amp;nbsp;просматривает" style="text;html=1;resizable=0;points=[];;align=center;verticalAlign=middle;labelBackgroundColor=none;rounded=0;shadow=0;strokeWidth=1;fontSize=12;" parent="P8tIChN-5osMAXRXv5WA-43" vertex="1" connectable="0">
          <mxGeometry x="0.5" y="49" relative="1" as="geometry">
            <mxPoint x="22" y="-15" as="offset" />
          </mxGeometry>
        </mxCell>
        <mxCell id="7q1cOt3lcXniT5uqvXC3-12" value="Доходы" style="swimlane;fontStyle=0;align=center;verticalAlign=top;childLayout=stackLayout;horizontal=1;startSize=26;horizontalStack=0;resizeParent=1;resizeLast=0;collapsible=1;marginBottom=0;rounded=0;shadow=0;strokeWidth=1;" parent="WIyWlLk6GJQsqaUBKTNV-1" vertex="1">
          <mxGeometry x="-240" y="1750" width="190" height="230" as="geometry">
            <mxRectangle x="340" y="380" width="170" height="26" as="alternateBounds" />
          </mxGeometry>
        </mxCell>
        <mxCell id="7q1cOt3lcXniT5uqvXC3-13" value="" style="line;html=1;strokeWidth=1;align=left;verticalAlign=middle;spacingTop=-1;spacingLeft=3;spacingRight=3;rotatable=0;labelPosition=right;points=[];portConstraint=eastwest;" parent="7q1cOt3lcXniT5uqvXC3-12" vertex="1">
          <mxGeometry y="26" width="190" height="8" as="geometry" />
        </mxCell>
        <mxCell id="7q1cOt3lcXniT5uqvXC3-14" value="День: дата" style="text;strokeColor=none;fillColor=none;align=left;verticalAlign=middle;spacingLeft=4;spacingRight=4;overflow=hidden;points=[[0,0.5],[1,0.5]];portConstraint=eastwest;rotatable=0;whiteSpace=wrap;html=1;" parent="7q1cOt3lcXniT5uqvXC3-12" vertex="1">
          <mxGeometry y="34" width="190" height="30" as="geometry" />
        </mxCell>
        <mxCell id="7q1cOt3lcXniT5uqvXC3-15" value="Пользователь: Пользователь" style="text;strokeColor=none;fillColor=none;align=left;verticalAlign=middle;spacingLeft=4;spacingRight=4;overflow=hidden;points=[[0,0.5],[1,0.5]];portConstraint=eastwest;rotatable=0;whiteSpace=wrap;html=1;" parent="7q1cOt3lcXniT5uqvXC3-12" vertex="1">
          <mxGeometry y="64" width="190" height="30" as="geometry" />
        </mxCell>
        <mxCell id="7q1cOt3lcXniT5uqvXC3-16" value="Категория: Категория" style="text;strokeColor=none;fillColor=none;align=left;verticalAlign=middle;spacingLeft=4;spacingRight=4;overflow=hidden;points=[[0,0.5],[1,0.5]];portConstraint=eastwest;rotatable=0;whiteSpace=wrap;html=1;" parent="7q1cOt3lcXniT5uqvXC3-12" vertex="1">
          <mxGeometry y="94" width="190" height="30" as="geometry" />
        </mxCell>
        <mxCell id="7q1cOt3lcXniT5uqvXC3-17" value="Валюта: Валюта" style="text;strokeColor=none;fillColor=none;align=left;verticalAlign=middle;spacingLeft=4;spacingRight=4;overflow=hidden;points=[[0,0.5],[1,0.5]];portConstraint=eastwest;rotatable=0;whiteSpace=wrap;html=1;" parent="7q1cOt3lcXniT5uqvXC3-12" vertex="1">
          <mxGeometry y="124" width="190" height="30" as="geometry" />
        </mxCell>
        <mxCell id="7q1cOt3lcXniT5uqvXC3-18" value="Счет: Счет" style="text;strokeColor=none;fillColor=none;align=left;verticalAlign=middle;spacingLeft=4;spacingRight=4;overflow=hidden;points=[[0,0.5],[1,0.5]];portConstraint=eastwest;rotatable=0;whiteSpace=wrap;html=1;" parent="7q1cOt3lcXniT5uqvXC3-12" vertex="1">
          <mxGeometry y="154" width="190" height="30" as="geometry" />
        </mxCell>
        <mxCell id="7q1cOt3lcXniT5uqvXC3-19" value="Значение: дробное число" style="text;strokeColor=none;fillColor=none;align=left;verticalAlign=middle;spacingLeft=4;spacingRight=4;overflow=hidden;points=[[0,0.5],[1,0.5]];portConstraint=eastwest;rotatable=0;whiteSpace=wrap;html=1;" parent="7q1cOt3lcXniT5uqvXC3-12" vertex="1">
          <mxGeometry y="184" width="190" height="30" as="geometry" />
        </mxCell>
        <mxCell id="lMvEq-eA2TfPI9kC0k38-5" value="" style="edgeStyle=orthogonalEdgeStyle;rounded=0;orthogonalLoop=1;jettySize=auto;html=1;dashed=1;dashPattern=8 8;startArrow=none;startFill=0;endArrow=none;endFill=0;entryX=0.25;entryY=0;entryDx=0;entryDy=0;" parent="WIyWlLk6GJQsqaUBKTNV-1" source="7q1cOt3lcXniT5uqvXC3-20" target="zkfFHV4jXpPFQw0GAbJ--17" edge="1">
          <mxGeometry relative="1" as="geometry" />
        </mxCell>
        <mxCell id="7q1cOt3lcXniT5uqvXC3-20" value="вид: расходы, доходы&lt;br&gt;тип: стандартный, личный" style="shape=note2;boundedLbl=1;whiteSpace=wrap;html=1;size=25;verticalAlign=top;align=left;spacingLeft=10;spacing=0;" parent="WIyWlLk6GJQsqaUBKTNV-1" vertex="1">
          <mxGeometry x="-640" y="1580" width="120" height="100" as="geometry" />
        </mxCell>
        <mxCell id="7q1cOt3lcXniT5uqvXC3-51" value="" style="edgeStyle=orthogonalEdgeStyle;rounded=0;orthogonalLoop=1;jettySize=auto;html=1;endArrow=none;endFill=0;startArrow=diamondThin;startFill=0;" parent="WIyWlLk6GJQsqaUBKTNV-1" source="zkfFHV4jXpPFQw0GAbJ--13" target="7q1cOt3lcXniT5uqvXC3-29" edge="1">
          <mxGeometry relative="1" as="geometry">
            <mxPoint x="-572" y="2095" as="sourcePoint" />
            <Array as="points">
              <mxPoint x="-690" y="2100" />
            </Array>
          </mxGeometry>
        </mxCell>
        <mxCell id="7q1cOt3lcXniT5uqvXC3-54" value="" style="edgeStyle=orthogonalEdgeStyle;rounded=0;orthogonalLoop=1;jettySize=auto;html=1;endArrow=none;endFill=0;startArrow=diamondThin;startFill=0;" parent="WIyWlLk6GJQsqaUBKTNV-1" source="7q1cOt3lcXniT5uqvXC3-12" target="7q1cOt3lcXniT5uqvXC3-29" edge="1">
          <mxGeometry relative="1" as="geometry">
            <mxPoint x="-187" y="2095" as="sourcePoint" />
            <Array as="points">
              <mxPoint x="-140" y="2100" />
            </Array>
          </mxGeometry>
        </mxCell>
        <mxCell id="7q1cOt3lcXniT5uqvXC3-29" value="Счет" style="swimlane;fontStyle=0;align=center;verticalAlign=top;childLayout=stackLayout;horizontal=1;startSize=26;horizontalStack=0;resizeParent=1;resizeLast=0;collapsible=1;marginBottom=0;rounded=0;shadow=0;strokeWidth=1;" parent="WIyWlLk6GJQsqaUBKTNV-1" vertex="1">
          <mxGeometry x="-508" y="2020" width="190" height="160" as="geometry">
            <mxRectangle x="340" y="380" width="170" height="26" as="alternateBounds" />
          </mxGeometry>
        </mxCell>
        <mxCell id="7q1cOt3lcXniT5uqvXC3-30" value="" style="line;html=1;strokeWidth=1;align=left;verticalAlign=middle;spacingTop=-1;spacingLeft=3;spacingRight=3;rotatable=0;labelPosition=right;points=[];portConstraint=eastwest;" parent="7q1cOt3lcXniT5uqvXC3-29" vertex="1">
          <mxGeometry y="26" width="190" height="8" as="geometry" />
        </mxCell>
        <mxCell id="lMvEq-eA2TfPI9kC0k38-1" value="Тип: перечисление" style="text;strokeColor=none;fillColor=none;align=left;verticalAlign=middle;spacingLeft=4;spacingRight=4;overflow=hidden;points=[[0,0.5],[1,0.5]];portConstraint=eastwest;rotatable=0;whiteSpace=wrap;html=1;" parent="7q1cOt3lcXniT5uqvXC3-29" vertex="1">
          <mxGeometry y="34" width="190" height="30" as="geometry" />
        </mxCell>
        <mxCell id="7q1cOt3lcXniT5uqvXC3-31" value="Номер: целое" style="text;strokeColor=none;fillColor=none;align=left;verticalAlign=middle;spacingLeft=4;spacingRight=4;overflow=hidden;points=[[0,0.5],[1,0.5]];portConstraint=eastwest;rotatable=0;whiteSpace=wrap;html=1;" parent="7q1cOt3lcXniT5uqvXC3-29" vertex="1">
          <mxGeometry y="64" width="190" height="30" as="geometry" />
        </mxCell>
        <mxCell id="7q1cOt3lcXniT5uqvXC3-32" value="Валюта: Валюта" style="text;strokeColor=none;fillColor=none;align=left;verticalAlign=middle;spacingLeft=4;spacingRight=4;overflow=hidden;points=[[0,0.5],[1,0.5]];portConstraint=eastwest;rotatable=0;whiteSpace=wrap;html=1;" parent="7q1cOt3lcXniT5uqvXC3-29" vertex="1">
          <mxGeometry y="94" width="190" height="30" as="geometry" />
        </mxCell>
        <mxCell id="7q1cOt3lcXniT5uqvXC3-33" value="Значение: дробное число" style="text;strokeColor=none;fillColor=none;align=left;verticalAlign=middle;spacingLeft=4;spacingRight=4;overflow=hidden;points=[[0,0.5],[1,0.5]];portConstraint=eastwest;rotatable=0;whiteSpace=wrap;html=1;" parent="7q1cOt3lcXniT5uqvXC3-29" vertex="1">
          <mxGeometry y="124" width="190" height="30" as="geometry" />
        </mxCell>
        <mxCell id="7q1cOt3lcXniT5uqvXC3-41" value="" style="edgeStyle=orthogonalEdgeStyle;rounded=0;orthogonalLoop=1;jettySize=auto;html=1;endArrow=none;endFill=0;startArrow=diamondThin;startFill=0;" parent="WIyWlLk6GJQsqaUBKTNV-1" source="zkfFHV4jXpPFQw0GAbJ--13" target="P8tIChN-5osMAXRXv5WA-7" edge="1">
          <mxGeometry relative="1" as="geometry">
            <Array as="points">
              <mxPoint x="-560" y="1880" />
              <mxPoint x="-560" y="1915" />
            </Array>
          </mxGeometry>
        </mxCell>
        <mxCell id="7q1cOt3lcXniT5uqvXC3-40" value="" style="edgeStyle=orthogonalEdgeStyle;rounded=0;orthogonalLoop=1;jettySize=auto;html=1;endArrow=diamondThin;endFill=0;" parent="WIyWlLk6GJQsqaUBKTNV-1" source="zkfFHV4jXpPFQw0GAbJ--17" target="zkfFHV4jXpPFQw0GAbJ--13" edge="1">
          <mxGeometry relative="1" as="geometry">
            <Array as="points">
              <mxPoint x="-560" y="1744" />
              <mxPoint x="-560" y="1800" />
            </Array>
          </mxGeometry>
        </mxCell>
        <mxCell id="7q1cOt3lcXniT5uqvXC3-39" value="" style="edgeStyle=orthogonalEdgeStyle;rounded=0;orthogonalLoop=1;jettySize=auto;html=1;endArrow=diamondThin;endFill=0;" parent="WIyWlLk6GJQsqaUBKTNV-1" source="zkfFHV4jXpPFQw0GAbJ--17" target="7q1cOt3lcXniT5uqvXC3-12" edge="1">
          <mxGeometry relative="1" as="geometry">
            <Array as="points">
              <mxPoint x="-268" y="1744" />
              <mxPoint x="-268" y="1800" />
            </Array>
          </mxGeometry>
        </mxCell>
        <mxCell id="7q1cOt3lcXniT5uqvXC3-55" value="" style="rounded=0;orthogonalLoop=1;jettySize=auto;html=1;endArrow=none;endFill=0;startArrow=diamondThin;startFill=0;edgeStyle=orthogonalEdgeStyle;" parent="WIyWlLk6GJQsqaUBKTNV-1" source="7q1cOt3lcXniT5uqvXC3-12" target="P8tIChN-5osMAXRXv5WA-7" edge="1">
          <mxGeometry relative="1" as="geometry">
            <Array as="points">
              <mxPoint x="-268" y="1880" />
              <mxPoint x="-268" y="1915" />
            </Array>
          </mxGeometry>
        </mxCell>
        <mxCell id="lMvEq-eA2TfPI9kC0k38-3" value="" style="edgeStyle=orthogonalEdgeStyle;rounded=0;orthogonalLoop=1;jettySize=auto;html=1;startArrow=none;startFill=0;endArrow=none;endFill=0;dashed=1;dashPattern=8 8;" parent="WIyWlLk6GJQsqaUBKTNV-1" source="lMvEq-eA2TfPI9kC0k38-2" target="7q1cOt3lcXniT5uqvXC3-33" edge="1">
          <mxGeometry relative="1" as="geometry" />
        </mxCell>
        <mxCell id="lMvEq-eA2TfPI9kC0k38-2" value="тип: наличные, платежная карта" style="shape=note2;boundedLbl=1;whiteSpace=wrap;html=1;size=25;verticalAlign=top;align=left;spacingLeft=10;spacing=0;" parent="WIyWlLk6GJQsqaUBKTNV-1" vertex="1">
          <mxGeometry x="-250" y="2124" width="120" height="70" as="geometry" />
        </mxCell>
        <mxCell id="H1FNYosvNPDqrNqSpmfS-6" value="0..*" style="text;html=1;strokeColor=none;fillColor=none;align=center;verticalAlign=middle;whiteSpace=wrap;rounded=0;" parent="WIyWlLk6GJQsqaUBKTNV-1" vertex="1">
          <mxGeometry x="-685" y="1725" width="20" height="20" as="geometry" />
        </mxCell>
        <mxCell id="H1FNYosvNPDqrNqSpmfS-7" value="1" style="text;html=1;strokeColor=none;fillColor=none;align=center;verticalAlign=middle;whiteSpace=wrap;rounded=0;" parent="WIyWlLk6GJQsqaUBKTNV-1" vertex="1">
          <mxGeometry x="-528" y="1393" width="20" height="20" as="geometry" />
        </mxCell>
        <mxCell id="H1FNYosvNPDqrNqSpmfS-8" value="1" style="text;html=1;strokeColor=none;fillColor=none;align=center;verticalAlign=middle;whiteSpace=wrap;rounded=0;" parent="WIyWlLk6GJQsqaUBKTNV-1" vertex="1">
          <mxGeometry x="-316" y="1393" width="20" height="20" as="geometry" />
        </mxCell>
        <mxCell id="H1FNYosvNPDqrNqSpmfS-9" value="0..*" style="text;html=1;strokeColor=none;fillColor=none;align=center;verticalAlign=middle;whiteSpace=wrap;rounded=0;" parent="WIyWlLk6GJQsqaUBKTNV-1" vertex="1">
          <mxGeometry x="-167" y="1727" width="20" height="20" as="geometry" />
        </mxCell>
        <mxCell id="H1FNYosvNPDqrNqSpmfS-10" value="0..*" style="text;html=1;strokeColor=none;fillColor=none;align=center;verticalAlign=middle;whiteSpace=wrap;rounded=0;" parent="WIyWlLk6GJQsqaUBKTNV-1" vertex="1">
          <mxGeometry x="-438" y="1639" width="20" height="20" as="geometry" />
        </mxCell>
        <mxCell id="H1FNYosvNPDqrNqSpmfS-11" value="1" style="text;html=1;strokeColor=none;fillColor=none;align=center;verticalAlign=middle;whiteSpace=wrap;rounded=0;" parent="WIyWlLk6GJQsqaUBKTNV-1" vertex="1">
          <mxGeometry x="-438" y="1592" width="20" height="20" as="geometry" />
        </mxCell>
        <mxCell id="H1FNYosvNPDqrNqSpmfS-14" value="1" style="text;html=1;strokeColor=none;fillColor=none;align=center;verticalAlign=middle;whiteSpace=wrap;rounded=0;" parent="WIyWlLk6GJQsqaUBKTNV-1" vertex="1">
          <mxGeometry x="-316" y="1750" width="20" height="20" as="geometry" />
        </mxCell>
        <mxCell id="H1FNYosvNPDqrNqSpmfS-15" value="1" style="text;html=1;strokeColor=none;fillColor=none;align=center;verticalAlign=middle;whiteSpace=wrap;rounded=0;" parent="WIyWlLk6GJQsqaUBKTNV-1" vertex="1">
          <mxGeometry x="-533" y="1750" width="20" height="20" as="geometry" />
        </mxCell>
        <mxCell id="H1FNYosvNPDqrNqSpmfS-17" value="1" style="text;html=1;strokeColor=none;fillColor=none;align=center;verticalAlign=middle;whiteSpace=wrap;rounded=0;" parent="WIyWlLk6GJQsqaUBKTNV-1" vertex="1">
          <mxGeometry x="-533" y="1890" width="20" height="20" as="geometry" />
        </mxCell>
        <mxCell id="H1FNYosvNPDqrNqSpmfS-18" value="1" style="text;html=1;strokeColor=none;fillColor=none;align=center;verticalAlign=middle;whiteSpace=wrap;rounded=0;" parent="WIyWlLk6GJQsqaUBKTNV-1" vertex="1">
          <mxGeometry x="-316" y="1890" width="20" height="20" as="geometry" />
        </mxCell>
        <mxCell id="H1FNYosvNPDqrNqSpmfS-19" value="1" style="text;html=1;strokeColor=none;fillColor=none;align=center;verticalAlign=middle;whiteSpace=wrap;rounded=0;" parent="WIyWlLk6GJQsqaUBKTNV-1" vertex="1">
          <mxGeometry x="-316" y="2077" width="20" height="20" as="geometry" />
        </mxCell>
        <mxCell id="H1FNYosvNPDqrNqSpmfS-20" value="1" style="text;html=1;strokeColor=none;fillColor=none;align=center;verticalAlign=middle;whiteSpace=wrap;rounded=0;" parent="WIyWlLk6GJQsqaUBKTNV-1" vertex="1">
          <mxGeometry x="-533" y="2077" width="20" height="20" as="geometry" />
        </mxCell>
        <mxCell id="H1FNYosvNPDqrNqSpmfS-21" value="0..*" style="text;html=1;strokeColor=none;fillColor=none;align=center;verticalAlign=middle;whiteSpace=wrap;rounded=0;" parent="WIyWlLk6GJQsqaUBKTNV-1" vertex="1">
          <mxGeometry x="-685" y="1980" width="20" height="20" as="geometry" />
        </mxCell>
        <mxCell id="H1FNYosvNPDqrNqSpmfS-22" value="0..*" style="text;html=1;strokeColor=none;fillColor=none;align=center;verticalAlign=middle;whiteSpace=wrap;rounded=0;" parent="WIyWlLk6GJQsqaUBKTNV-1" vertex="1">
          <mxGeometry x="-163" y="1980" width="20" height="20" as="geometry" />
        </mxCell>
        <mxCell id="H1FNYosvNPDqrNqSpmfS-23" value="0..*" style="text;html=1;strokeColor=none;fillColor=none;align=center;verticalAlign=middle;whiteSpace=wrap;rounded=0;" parent="WIyWlLk6GJQsqaUBKTNV-1" vertex="1">
          <mxGeometry x="-587" y="1860" width="20" height="20" as="geometry" />
        </mxCell>
        <mxCell id="H1FNYosvNPDqrNqSpmfS-25" value="0..*" style="text;html=1;strokeColor=none;fillColor=none;align=center;verticalAlign=middle;whiteSpace=wrap;rounded=0;" parent="WIyWlLk6GJQsqaUBKTNV-1" vertex="1">
          <mxGeometry x="-587" y="1801" width="20" height="20" as="geometry" />
        </mxCell>
        <mxCell id="H1FNYosvNPDqrNqSpmfS-26" value="0..*" style="text;html=1;strokeColor=none;fillColor=none;align=center;verticalAlign=middle;whiteSpace=wrap;rounded=0;" parent="WIyWlLk6GJQsqaUBKTNV-1" vertex="1">
          <mxGeometry x="-260" y="1860" width="20" height="20" as="geometry" />
        </mxCell>
        <mxCell id="H1FNYosvNPDqrNqSpmfS-27" value="0..*" style="text;html=1;strokeColor=none;fillColor=none;align=center;verticalAlign=middle;whiteSpace=wrap;rounded=0;" parent="WIyWlLk6GJQsqaUBKTNV-1" vertex="1">
          <mxGeometry x="-260" y="1800" width="20" height="20" as="geometry" />
        </mxCell>
      </root>
    </mxGraphModel>
  </diagram>
</mxfile>
